<?xml version="1.0" encoding="UTF-8"?>
<svg id="Layer_1" data-name="Layer 1" xmlns="http://www.w3.org/2000/svg" xmlns:xlink="http://www.w3.org/1999/xlink" viewBox="0 0 371.8 59.17">
  <defs>
    <style>
      .cls-1 {
        filter: url(#drop-shadow-8);
      }

      .cls-2 {
        fill: #dceaf7;
        stroke-width: 0px;
      }
    </style>
    <filter id="drop-shadow-8" filterUnits="userSpaceOnUse">
      <feOffset dx="0" dy="1"/>
      <feGaussianBlur result="blur" stdDeviation="3"/>
      <feFlood flood-color="#516593" flood-opacity=".75"/>
      <feComposite in2="blur" operator="in"/>
      <feComposite in="SourceGraphic"/>
    </filter>
  </defs>
  <g class="cls-1">
    <path class="cls-2" d="m71.02,19.78c1.06-.21,1.88-.32,2.46-.32,2.47,0,4.52.8,6.16,2.41v.15l4.6-2.46c.39-.26.85-.39,1.39-.39.79,0,1.46.3,2,.9,1.36,1.36,2.05,3.04,2.05,5.04v16.9c0,1.64-.52,2.98-1.56,4.02s-2.35,1.56-3.92,1.56l-4.55-2.58v.24c-1.51,1.59-3.55,2.39-6.11,2.39-.84,0-1.79-.1-2.85-.29-1.51-.29-2.98-.93-4.41-1.91-1.43-.98-2.67-2.27-3.73-3.86-.71-1.2-1.25-2.48-1.61-3.82s-.54-2.89-.54-4.63c.11-2.24.65-4.31,1.62-6.21s2.24-3.47,3.81-4.71c1.57-1.24,3.3-2.05,5.19-2.42Zm.41,14.05c0,1.14.33,2.14,1,3,.73.89,1.64,1.34,2.73,1.34.65,0,1.27-.17,1.85-.53.58-.35,1.05-.86,1.39-1.52.29-.49.46-.97.51-1.44.03-.37.05-.89.05-1.56-.24-1.67-1.01-2.8-2.29-3.38-.55-.26-1.07-.39-1.56-.39-.89,0-1.66.32-2.31.97s-1.07,1.52-1.27,2.61c-.02.16-.03.31-.04.42,0,.13-.03.28-.06.48Z"/>
    <path class="cls-2" d="m109.64,20.56c.31.11.59.24.85.37v-7.74c0-1.53.53-2.83,1.6-3.91,1.06-1.08,2.37-1.62,3.93-1.62.99.02,1.91.28,2.75.79.84.51,1.51,1.2,2,2.06s.73,1.78.73,2.78v28.69c0,1.07-.24,2.02-.72,2.86-.48.83-1.13,1.49-1.96,1.96s-1.76.71-2.8.71l-4.58-2.73v.19c-1.57,1.75-3.65,2.63-6.23,2.63-.67,0-1.47-.08-2.41-.24-2.61-.5-4.87-1.76-6.76-3.76-1.89-2-3.11-4.46-3.66-7.36-.16-.97-.24-1.9-.24-2.78,0-1.12.11-2.17.34-3.14.47-2,1.25-3.76,2.34-5.28s2.42-2.74,3.99-3.65c1.9-1.12,3.91-1.68,6.04-1.68,1.54,0,3.14.29,4.8.88Zm-6.48,12.98c0,1.33.37,2.41,1.12,3.24s1.66,1.24,2.75,1.24c.96-.03,1.76-.37,2.4-1s1.06-1.54,1.25-2.73v-1.66c-.37-1.92-1.36-3.06-2.95-3.43-.39-.07-.67-.1-.85-.1-.93,0-1.72.32-2.39.97s-1.1,1.53-1.29,2.65c-.03.16-.05.43-.05.8Z"/>
    <path class="cls-2" d="m140.98,20.56c.31.11.59.24.85.37v-7.74c0-1.53.53-2.83,1.6-3.91,1.06-1.08,2.37-1.62,3.93-1.62.99.02,1.91.28,2.75.79.84.51,1.51,1.2,2,2.06s.73,1.78.73,2.78v28.69c0,1.07-.24,2.02-.72,2.86-.48.83-1.13,1.49-1.96,1.96s-1.76.71-2.8.71l-4.58-2.73v.19c-1.57,1.75-3.65,2.63-6.23,2.63-.67,0-1.47-.08-2.41-.24-2.61-.5-4.87-1.76-6.76-3.76-1.89-2-3.11-4.46-3.66-7.36-.16-.97-.24-1.9-.24-2.78,0-1.12.11-2.17.34-3.14.47-2,1.25-3.76,2.34-5.28s2.42-2.74,3.99-3.65c1.9-1.12,3.91-1.68,6.04-1.68,1.54,0,3.14.29,4.8.88Zm-6.48,12.98c0,1.33.37,2.41,1.12,3.24s1.66,1.24,2.75,1.24c.96-.03,1.76-.37,2.4-1s1.06-1.54,1.25-2.73v-1.66c-.37-1.92-1.36-3.06-2.95-3.43-.39-.07-.67-.1-.85-.1-.93,0-1.72.32-2.39.97s-1.1,1.53-1.29,2.65c-.03.16-.05.43-.05.8Z"/>
    <path class="cls-2" d="m180.38,19.78c1.06-.21,1.88-.32,2.46-.32,2.47,0,4.52.8,6.16,2.41v.15l4.6-2.46c.39-.26.85-.39,1.39-.39.79,0,1.46.3,2,.9,1.36,1.36,2.05,3.04,2.05,5.04v16.9c0,1.64-.52,2.98-1.56,4.02s-2.35,1.56-3.92,1.56l-4.55-2.58v.24c-1.51,1.59-3.55,2.39-6.11,2.39-.84,0-1.79-.1-2.85-.29-1.51-.29-2.98-.93-4.41-1.91-1.43-.98-2.67-2.27-3.73-3.86-.71-1.2-1.25-2.48-1.61-3.82s-.54-2.89-.54-4.63c.11-2.24.65-4.31,1.62-6.21s2.24-3.47,3.81-4.71c1.57-1.24,3.3-2.05,5.19-2.42Zm.41,14.05c0,1.14.33,2.14,1,3,.73.89,1.64,1.34,2.73,1.34.65,0,1.27-.17,1.85-.53.58-.35,1.05-.86,1.39-1.52.29-.49.46-.97.51-1.44.03-.37.05-.89.05-1.56-.24-1.67-1.01-2.8-2.29-3.38-.55-.26-1.07-.39-1.56-.39-.89,0-1.66.32-2.31.97s-1.07,1.52-1.27,2.61c-.02.16-.03.31-.04.42,0,.13-.03.28-.06.48Z"/>
    <path class="cls-2" d="m214.77,21.36c.49-.47,1.03-.82,1.62-1.05s1.23-.34,1.91-.34h.24v-2.65c0-1.9.33-3.56.97-4.99s1.56-2.53,2.72-3.29,2.43-1.14,3.81-1.14h2.34c1.35,0,2.55.25,3.6.75s1.87,1.16,2.44,1.97.85,1.68.85,2.61c0,.42-.07.89-.22,1.41-.58,2.03-1.88,3.09-3.87,3.19l-.46.05h-.19c-.1.03-.21.08-.34.15-.23.1-.38.23-.46.39-.16.21-.24.41-.24.61l.05.95h.29c.88,0,1.67.22,2.39.66s1.29,1.04,1.72,1.8.65,1.61.65,2.53c-.02,1.33-.5,2.47-1.44,3.41s-2.06,1.41-3.36,1.41h-.29v12.32c0,1.02-.24,1.96-.73,2.81-.49.85-1.15,1.52-1.98,2.02-.84.5-1.76.74-2.76.74-1.53-.02-2.83-.56-3.92-1.64-1.09-1.08-1.63-2.41-1.63-3.98v-12.32h-.19c-1.41-.21-2.59-.81-3.53-1.8-.91-.88-1.36-1.96-1.36-3.24s.47-2.44,1.41-3.34Z"/>
    <path class="cls-2" d="m236,16.83c-1.14-1.14-1.7-2.55-1.7-4.24s.58-3.02,1.75-4.24c.57-.55,1.2-.97,1.9-1.27s1.43-.44,2.19-.44c1.61,0,2.99.6,4.14,1.8,1.12,1.17,1.68,2.56,1.68,4.19s-.56,3.07-1.68,4.19-2.5,1.68-4.14,1.68-3.02-.56-4.14-1.68Zm4.14,30.81c-1.53,0-2.83-.54-3.91-1.62-1.08-1.08-1.62-2.4-1.62-3.96v-16.8c0-1.02.25-1.96.74-2.81.5-.85,1.17-1.52,2.02-2.02.85-.5,1.79-.74,2.81-.74,1.01.02,1.93.27,2.78.78s1.51,1.18,2.01,2.02.74,1.78.74,2.82v16.71c0,1.58-.54,2.9-1.63,3.99s-2.4,1.63-3.95,1.63Z"/>
    <path class="cls-2" d="m250.37,46.05c-1.1-1.1-1.66-2.44-1.66-3.99V13.18c0-.97.25-1.88.75-2.73s1.18-1.51,2.05-2.01c.86-.5,1.81-.74,2.85-.74.99.02,1.9.28,2.74.79.84.51,1.49,1.19,1.97,2.03s.72,1.76.72,2.75v28.74c0,1.59-.53,2.94-1.58,4.04-1.14,1.05-2.45,1.58-3.95,1.58s-2.79-.53-3.9-1.58Z"/>
    <path class="cls-2" d="m264.32,46.05c-1.1-1.1-1.66-2.44-1.66-3.99v-16.8c0-1.02.26-1.97.77-2.82s1.2-1.53,2.06-2.02,1.79-.73,2.78-.73l4.09,2.09.05-.17c.96-.58,2.05-1.05,3.29-1.39,1.4-.41,2.68-.61,3.85-.61,2.24,0,4.4.66,6.48,2l.54.37.46.29.44-.24.95-.51c1.2-.57,2.23-1,3.09-1.29,1.33-.44,2.65-.66,3.95-.66,1.84,0,3.53.42,5.09,1.26,1.56.83,2.79,1.97,3.69,3.41.9,1.43,1.35,3.02,1.35,4.76v13.08c0,1.04-.25,1.99-.75,2.84-.5.86-1.17,1.52-2.01,2.01s-1.75.73-2.74.73c-1.54,0-2.86-.54-3.97-1.61s-1.66-2.39-1.66-3.97v-10.28c0-.32-.06-.64-.18-.95s-.3-.58-.54-.81c-.23-.24-.5-.42-.79-.54-.29-.13-.6-.18-.93-.18-.67,0-1.24.24-1.73.71s-.73,1.05-.73,1.73v10.37c0,1.61-.54,2.95-1.63,4.04-1.02,1.02-2.3,1.53-3.85,1.53s-2.86-.54-3.95-1.63c-.49-.54-.86-1.16-1.13-1.88s-.4-1.42-.4-2.12v-10.42c0-.65-.23-1.22-.69-1.72-.46-.5-1.02-.75-1.67-.77-.7,0-1.3.24-1.81.71s-.77,1.05-.77,1.73v10.47c0,1.59-.54,2.92-1.61,3.99-1.06,1.05-2.33,1.58-3.82,1.58s-2.79-.53-3.9-1.58Z"/>
  </g>
</svg>