<?xml version="1.0" encoding="UTF-8"?>
<svg id="Layer_1" data-name="Layer 1" xmlns="http://www.w3.org/2000/svg" xmlns:xlink="http://www.w3.org/1999/xlink" viewBox="0 0 371.8 59.17">
  <defs>
    <style>
      .cls-1 {
        filter: url(#drop-shadow-7);
      }

      .cls-2 {
        fill: #dceaf7;
        stroke-width: 0px;
      }
    </style>
    <filter id="drop-shadow-7" filterUnits="userSpaceOnUse">
      <feOffset dx="0" dy="1"/>
      <feGaussianBlur result="blur" stdDeviation="3"/>
      <feFlood flood-color="#516593" flood-opacity=".75"/>
      <feComposite in2="blur" operator="in"/>
      <feComposite in="SourceGraphic"/>
    </filter>
  </defs>
  <g class="cls-1">
    <path class="cls-2" d="m39.27,19.84c.95-.19,1.68-.28,2.21-.28,2.21,0,4.05.72,5.52,2.16v.13l4.13-2.21c.35-.23.76-.35,1.24-.35.71,0,1.31.27,1.79.81,1.22,1.22,1.83,2.73,1.83,4.52v15.15c0,1.47-.47,2.67-1.4,3.6s-2.1,1.4-3.52,1.4l-4.08-2.31v.22c-1.35,1.43-3.18,2.14-5.48,2.14-.76,0-1.61-.09-2.55-.26-1.35-.26-2.67-.83-3.95-1.72-1.28-.88-2.39-2.03-3.34-3.46-.64-1.08-1.12-2.22-1.44-3.43s-.48-2.59-.48-4.15c.1-2.01.59-3.87,1.45-5.57s2.01-3.11,3.42-4.23c1.41-1.11,2.96-1.84,4.65-2.17Zm.37,12.6c0,1.02.3,1.92.9,2.69.66.8,1.47,1.2,2.45,1.2.58,0,1.14-.16,1.66-.47.52-.31.94-.77,1.24-1.36.26-.44.41-.87.46-1.29.03-.33.04-.8.04-1.4-.22-1.5-.9-2.51-2.05-3.04-.49-.23-.96-.35-1.4-.35-.8,0-1.49.29-2.07.87s-.96,1.36-1.14,2.34c-.01.15-.02.27-.03.38,0,.11-.02.25-.05.43Z"/>
    <path class="cls-2" d="m60.08,43.4c-.99-.99-1.48-2.18-1.48-3.58V13.92c0-.87.23-1.69.68-2.45s1.06-1.36,1.83-1.8c.77-.45,1.62-.67,2.55-.67.89.02,1.71.25,2.46.71.75.46,1.34,1.06,1.77,1.82s.64,1.58.64,2.47v25.77c0,1.43-.47,2.64-1.42,3.62-1.02.95-2.2,1.42-3.54,1.42s-2.5-.47-3.49-1.42Z"/>
    <path class="cls-2" d="m72.59,43.4c-.99-.99-1.48-2.18-1.48-3.58V13.92c0-.87.23-1.69.68-2.45s1.06-1.36,1.83-1.8c.77-.45,1.62-.67,2.55-.67.89.02,1.71.25,2.46.71.75.46,1.34,1.06,1.77,1.82s.64,1.58.64,2.47v25.77c0,1.43-.47,2.64-1.42,3.62-1.02.95-2.2,1.42-3.54,1.42s-2.5-.47-3.49-1.42Z"/>
    <path class="cls-2" d="m105.72,19.92c.79-.16,1.58-.24,2.38-.24,2.23,0,4,.69,5.31,2.07v.22l4.13-2.29c.31-.23.71-.35,1.2-.35.71,0,1.32.27,1.83.81,1.22,1.27,1.83,2.8,1.83,4.61v15.29c0,2.49-.29,4.7-.88,6.64s-1.46,3.56-2.62,4.88c-1.16,1.32-2.59,2.31-4.3,2.99-1.71.68-3.64,1.02-5.8,1.02-.63,0-1.08-.02-1.38-.04-2.71-.17-4.81-.68-6.31-1.53-1.21-.66-2.11-1.37-2.7-2.15-.59-.78-.88-1.58-.88-2.41,0-.63.15-1.24.46-1.83.73-1.51,1.91-2.27,3.54-2.27.55,0,1.11.09,1.68.26h.11l1.46.59s.14.07.29.11.29.09.43.15c1.11.39,2.27.59,3.49.59,1.12-.15,1.95-.44,2.49-.87s.85-1.05.94-1.86c.03-.15.04-.34.04-.59-1.44.81-2.93,1.22-4.45,1.22-.57,0-1.35-.08-2.34-.24-1.34-.26-2.62-.75-3.84-1.46-1.79-1.14-3.18-2.63-4.16-4.48s-1.47-3.91-1.47-6.18c.01-1.66.27-3.2.75-4.62.49-1.42,1.17-2.68,2.03-3.8.87-1.11,1.88-2.04,3.05-2.77,1.17-.74,2.39-1.22,3.69-1.45Zm.37,12.38c.01,1.09.35,1.98,1,2.67.66.69,1.45,1.04,2.38,1.04.32,0,.63-.04.94-.13,1.28-.36,2.12-1.29,2.51-2.77.03-.33.04-.81.04-1.44-.17-1-.57-1.81-1.19-2.4s-1.34-.9-2.17-.9c-.29,0-.6.04-.94.13-.58.2-1.13.56-1.64,1.07-.63.71-.94,1.62-.94,2.73Z"/>
    <path class="cls-2" d="m129.91,44.82c-1.35,0-2.51-.48-3.48-1.45-.97-.97-1.45-2.15-1.45-3.55V13.87c0-.87.22-1.69.67-2.45s1.05-1.36,1.8-1.8c.76-.45,1.59-.68,2.51-.71.93,0,1.78.22,2.53.68s1.36,1.06,1.8,1.82c.44.76.67,1.6.67,2.5v7.25c.52-.28,1.11-.53,1.75-.76,1.57-.48,3.04-.72,4.39-.72s2.54.21,3.64.63,2.03,1,2.78,1.73c.76.74,1.35,1.63,1.78,2.7s.64,2.2.64,3.41v11.75c0,1.41-.49,2.61-1.47,3.59-.98.99-2.19,1.48-3.61,1.48-1.38-.07-2.55-.6-3.5-1.57s-1.43-2.16-1.43-3.54v-9.43c0-.66-.23-1.24-.7-1.76-.47-.52-1.03-.78-1.7-.8-.68,0-1.28.24-1.79.72s-.76,1.08-.76,1.79v9.48c0,.9-.23,1.74-.69,2.51s-1.07,1.37-1.85,1.8c-.77.43-1.61.64-2.51.64Z"/>
    <path class="cls-2" d="m153.93,17.19c-1.02-1.02-1.53-2.29-1.53-3.8s.52-2.71,1.57-3.8c.51-.5,1.08-.87,1.7-1.14s1.28-.39,1.97-.39c1.44,0,2.68.54,3.71,1.62,1,1.05,1.51,2.3,1.51,3.76s-.5,2.75-1.51,3.76-2.24,1.51-3.71,1.51-2.71-.5-3.71-1.51Zm3.71,27.62c-1.37,0-2.54-.48-3.5-1.45-.97-.97-1.45-2.15-1.45-3.55v-15.07c0-.92.22-1.76.67-2.52.44-.76,1.05-1.37,1.81-1.81.76-.45,1.61-.67,2.52-.67.9.02,1.73.25,2.49.7s1.36,1.05,1.8,1.81.67,1.6.67,2.53v14.98c0,1.41-.49,2.6-1.46,3.58s-2.15,1.46-3.54,1.46Z"/>
    <path class="cls-2" d="m170.22,44.69c-1.37,0-2.53-.47-3.47-1.42s-1.42-2.16-1.42-3.62V13.96c0-1.35.48-2.52,1.44-3.49s2.13-1.48,3.49-1.51c.93,0,1.78.23,2.54.69.76.46,1.36,1.07,1.8,1.83.44.77.66,1.61.66,2.52v6.49c.07-.03.33-.12.76-.26,1.38-.45,2.66-.68,3.84-.68.66,0,1.34.08,2.05.24,1.63.31,3.09.89,4.37,1.73,1.28.85,2.35,1.94,3.21,3.27s1.46,2.83,1.81,4.52c.19.92.28,1.8.28,2.64,0,2.08-.43,4.03-1.3,5.85s-2.03,3.32-3.5,4.51c-1.47,1.19-3.06,1.93-4.78,2.24-.84.15-1.57.22-2.18.22-2.37,0-4.27-.77-5.68-2.31v-.17l-3.93,2.4Zm4.69-12.29c.01,1.15.35,2.08,1,2.79.66.71,1.45,1.06,2.38,1.06.19,0,.43-.03.72-.09.48-.1.92-.31,1.32-.63s.72-.74.95-1.27.36-1.11.37-1.77c0-1.28-.35-2.28-1.05-2.99s-1.65-1.07-2.84-1.07c-.73.13-1.34.47-1.85,1.01-.5.55-.83,1.25-.97,2.11-.03.22-.04.5-.04.85Z"/>
    <path class="cls-2" d="m194.83,43.4c-.99-.99-1.48-2.18-1.48-3.58V13.92c0-.87.23-1.69.68-2.45s1.06-1.36,1.83-1.8c.77-.45,1.62-.67,2.55-.67.89.02,1.71.25,2.46.71.75.46,1.34,1.06,1.77,1.82s.64,1.58.64,2.47v25.77c0,1.43-.47,2.64-1.42,3.62-1.02.95-2.2,1.42-3.54,1.42s-2.5-.47-3.49-1.42Z"/>
    <path class="cls-2" d="m207.26,17.19c-1.02-1.02-1.53-2.29-1.53-3.8s.52-2.71,1.57-3.8c.51-.5,1.08-.87,1.7-1.14s1.28-.39,1.97-.39c1.44,0,2.68.54,3.71,1.62,1,1.05,1.51,2.3,1.51,3.76s-.5,2.75-1.51,3.76-2.24,1.51-3.71,1.51-2.71-.5-3.71-1.51Zm3.71,27.62c-1.37,0-2.54-.48-3.5-1.45-.97-.97-1.45-2.15-1.45-3.55v-15.07c0-.92.22-1.76.67-2.52.44-.76,1.05-1.37,1.81-1.81.76-.45,1.61-.67,2.52-.67.9.02,1.73.25,2.49.7s1.36,1.05,1.8,1.81.67,1.6.67,2.53v14.98c0,1.41-.49,2.6-1.46,3.58s-2.15,1.46-3.54,1.46Z"/>
    <path class="cls-2" d="m230.16,21.26c.44-.42.92-.74,1.45-.94s1.1-.31,1.71-.31h.22v-2.38c0-1.7.29-3.19.87-4.48s1.39-2.26,2.43-2.95,2.18-1.03,3.42-1.03h2.1c1.21,0,2.29.22,3.23.68s1.67,1.04,2.18,1.77.76,1.51.76,2.34c0,.38-.07.8-.2,1.27-.52,1.82-1.68,2.77-3.47,2.86l-.41.04h-.17c-.09.03-.19.07-.31.13-.2.09-.34.2-.41.35-.15.19-.22.37-.22.55l.04.85h.26c.79,0,1.5.2,2.14.59s1.15.93,1.54,1.62.58,1.44.58,2.27c-.01,1.19-.44,2.21-1.29,3.06s-1.85,1.27-3.01,1.27h-.26v11.05c0,.92-.22,1.76-.66,2.52-.44.76-1.03,1.37-1.78,1.81-.75.45-1.58.67-2.48.67-1.37-.02-2.54-.51-3.52-1.47-.97-.97-1.46-2.16-1.46-3.57v-11.05h-.17c-1.27-.19-2.32-.73-3.17-1.62-.82-.79-1.22-1.75-1.22-2.9s.42-2.19,1.27-2.99Z"/>
    <path class="cls-2" d="m249.21,17.19c-1.02-1.02-1.53-2.29-1.53-3.8s.52-2.71,1.57-3.8c.51-.5,1.08-.87,1.7-1.14s1.28-.39,1.97-.39c1.44,0,2.68.54,3.71,1.62,1,1.05,1.51,2.3,1.51,3.76s-.5,2.75-1.51,3.76-2.24,1.51-3.71,1.51-2.71-.5-3.71-1.51Zm3.71,27.62c-1.37,0-2.54-.48-3.5-1.45-.97-.97-1.45-2.15-1.45-3.55v-15.07c0-.92.22-1.76.67-2.52.44-.76,1.05-1.37,1.81-1.81.76-.45,1.61-.67,2.52-.67.9.02,1.73.25,2.49.7s1.36,1.05,1.8,1.81.67,1.6.67,2.53v14.98c0,1.41-.49,2.6-1.46,3.58s-2.15,1.46-3.54,1.46Z"/>
    <path class="cls-2" d="m262.09,43.4c-.99-.99-1.48-2.18-1.48-3.58V13.92c0-.87.23-1.69.68-2.45s1.06-1.36,1.83-1.8c.77-.45,1.62-.67,2.55-.67.89.02,1.71.25,2.46.71.75.46,1.34,1.06,1.77,1.82s.64,1.58.64,2.47v25.77c0,1.43-.47,2.64-1.42,3.62-1.02.95-2.2,1.42-3.54,1.42s-2.5-.47-3.49-1.42Z"/>
    <path class="cls-2" d="m274.6,43.4c-.99-.99-1.48-2.18-1.48-3.58v-15.07c0-.92.23-1.76.69-2.53s1.07-1.38,1.85-1.81,1.6-.66,2.49-.66l3.67,1.88.04-.15c.86-.52,1.84-.94,2.95-1.24,1.25-.36,2.4-.55,3.45-.55,2.01,0,3.94.6,5.81,1.79l.48.33.41.26.39-.22.85-.46c1.08-.51,2-.9,2.77-1.16,1.19-.39,2.37-.59,3.54-.59,1.65,0,3.17.37,4.56,1.13,1.4.75,2.5,1.77,3.31,3.06.81,1.29,1.21,2.71,1.21,4.27v11.73c0,.93-.23,1.78-.68,2.54-.45.77-1.05,1.37-1.8,1.8s-1.57.66-2.46.66c-1.38,0-2.57-.48-3.56-1.44s-1.48-2.15-1.48-3.56v-9.22c0-.29-.05-.57-.16-.85s-.27-.52-.48-.73c-.21-.21-.45-.37-.71-.48-.26-.11-.54-.17-.83-.17-.6,0-1.11.21-1.55.63s-.66.94-.66,1.55v9.3c0,1.44-.49,2.65-1.46,3.62-.92.92-2.07,1.38-3.45,1.38s-2.56-.49-3.54-1.46c-.44-.48-.78-1.04-1.02-1.68s-.36-1.27-.36-1.9v-9.35c0-.58-.21-1.09-.62-1.54-.41-.45-.91-.67-1.5-.69-.63,0-1.17.21-1.63.63s-.69.94-.69,1.55v9.39c0,1.43-.48,2.62-1.44,3.58-.95.95-2.09,1.42-3.43,1.42s-2.5-.47-3.49-1.42Z"/>
    <path class="cls-2" d="m316.16,43.09c-1.92-1.19-2.88-2.48-2.88-3.87,0-.42.07-.79.2-1.11.25-.79.71-1.41,1.4-1.87.68-.46,1.51-.69,2.49-.69.6,0,1.32.14,2.18.41l.9.26.63.22c.99.41,1.89.66,2.69.76h.81c.39,0,.66-.13.79-.39,0-.45-.16-.78-.48-.98-.01-.02-.04-.03-.09-.05-.04-.02-.08-.04-.12-.07-.04-.02-.07-.04-.1-.05l-.41-.15-.9-.22-1.16-.35-.85-.22c-1.34-.36-2.45-.76-3.33-1.19-.88-.43-1.57-.91-2.07-1.45s-.92-1.19-1.26-1.97c-.34-.83-.5-1.67-.5-2.51,0-1.4.44-2.71,1.33-3.94.89-1.23,2.16-2.21,3.81-2.94s3.58-1.09,5.78-1.09c1.7,0,3.22.18,4.56.55,2.11.58,3.55,1.38,4.3,2.38.38.51.57,1.14.57,1.88s-.23,1.37-.68,1.97c-.45.61-1.06,1-1.83,1.19-.35.09-.71.13-1.07.13-.57,0-1.31-.12-2.23-.35l-1.35-.33-.66-.17-.72-.13c-.23-.06-.4-.09-.5-.09-.86,0-1.35.02-1.46.04l-.09.09-.13.13c-.1.1-.15.2-.15.28,0,.19.15.39.46.61.06.03.11.06.15.09s.1.06.15.09l.41.15.66.22,1.57.52,1.11.33.98.35c.93.29,1.92.79,2.97,1.48.99.68,1.74,1.53,2.26,2.55.52,1.01.78,2.06.78,3.13,0,2.27-1.01,4.22-3.04,5.85-1.88,1.51-4.39,2.27-7.53,2.27-.41,0-1.06-.03-1.97-.09-2.69-.2-4.82-.76-6.38-1.68Z"/>
  </g>
</svg>