<?xml version="1.0" encoding="UTF-8"?>
<svg id="Layer_1" data-name="Layer 1" xmlns="http://www.w3.org/2000/svg" xmlns:xlink="http://www.w3.org/1999/xlink" viewBox="0 0 371.8 59.17">
  <defs>
    <style>
      .cls-1 {
        filter: url(#drop-shadow-5);
      }

      .cls-2 {
        filter: url(#drop-shadow-4);
      }

      .cls-3 {
        filter: url(#drop-shadow-6);
      }

      .cls-4 {
        fill: #dceaf7;
        stroke-width: 0px;
      }
    </style>
    <filter id="drop-shadow-4" filterUnits="userSpaceOnUse">
      <feOffset dx="0" dy="1"/>
      <feGaussianBlur result="blur" stdDeviation="3"/>
      <feFlood flood-color="#516593" flood-opacity=".75"/>
      <feComposite in2="blur" operator="in"/>
      <feComposite in="SourceGraphic"/>
    </filter>
    <filter id="drop-shadow-5" filterUnits="userSpaceOnUse">
      <feOffset dx="0" dy="1"/>
      <feGaussianBlur result="blur-2" stdDeviation="3"/>
      <feFlood flood-color="#516593" flood-opacity=".75"/>
      <feComposite in2="blur-2" operator="in"/>
      <feComposite in="SourceGraphic"/>
    </filter>
    <filter id="drop-shadow-6" filterUnits="userSpaceOnUse">
      <feOffset dx="0" dy="1"/>
      <feGaussianBlur result="blur-3" stdDeviation="3"/>
      <feFlood flood-color="#516593" flood-opacity=".75"/>
      <feComposite in2="blur-3" operator="in"/>
      <feComposite in="SourceGraphic"/>
    </filter>
  </defs>
  <g class="cls-2">
    <path class="cls-4" d="m18.98,16.63c-.37-.49-.65-1.02-.85-1.58s-.3-1.11-.3-1.64.1-1.08.3-1.62c.2-.54.5-1.06.89-1.54.86-1.06,2-1.69,3.42-1.89.39-.05.76-.08,1.11-.08.51,0,.97.06,1.37.17.4.11.73.26.99.45.26.18.46.39.59.61s.19.46.19.7c0,.33-.09.61-.28.84-.15.19-.29.33-.44.4s-.34.12-.58.12c-.2,0-.36,0-.48-.03-.24-.04-.56-.14-.98-.29-.19-.05-.44-.08-.75-.08-.54,0-1,.16-1.38.47-.39.31-.64.76-.77,1.35-.03.14-.04.29-.04.44,0,.15.01.31.04.46.07.39.2.72.37.98s.4.47.67.61c.27.13.59.2.95.2.45,0,.99-.11,1.61-.32,0,0,.03-.01.06-.02s.06-.02.08-.02c.16-.04.33-.05.52-.05.45,0,.8.14,1.06.43.23.27.35.57.35.88,0,.29-.1.58-.29.87-.25.38-.7.69-1.35.94-.47.19-1.03.28-1.7.28-.33,0-.68-.03-1.05-.08-.97-.15-1.81-.53-2.53-1.13-.27-.22-.54-.49-.8-.81Z"/>
    <path class="cls-4" d="m28.89,18.66c-.43,0-.8-.15-1.1-.44-.31-.29-.46-.65-.46-1.08v-4.73c0-.43.15-.8.46-1.11s.67-.46,1.1-.46l1.44.98v-.07l.08-.1.17-.18c.37-.39.77-.59,1.19-.6.15,0,.28.02.39.05.27.07.5.2.69.4s.31.42.36.68c.02.16.03.27.03.34,0,.33-.11.62-.34.86-.23.24-.59.44-1.09.61-.05.02-.09.03-.13.05s-.09.03-.15.06c-.23.09-.42.18-.57.28s-.26.2-.33.32-.13.26-.16.43c-.03.17-.04.41-.04.7v1.37c0,.3-.07.57-.21.82-.14.25-.32.45-.56.59s-.49.22-.77.23Z"/>
    <path class="cls-4" d="m41.07,14.25c0,.46-.1.78-.29.96s-.52.28-.98.28h-3.64s.1.12.25.27c.13.1.26.17.38.22.12.05.28.09.49.12.21.03.45.04.75.04.28-.01.64-.08,1.07-.2.33-.08.57-.12.7-.12.37,0,.66.11.89.32s.33.48.33.79c0,.11,0,.2-.03.27-.05.17-.13.33-.24.46s-.25.26-.42.37c-.18.11-.42.22-.74.33-.39.12-.79.2-1.2.25-.29.04-.59.05-.92.05-.68,0-1.3-.1-1.87-.3-.57-.2-1.05-.48-1.46-.84s-.71-.79-.92-1.29-.31-1.03-.31-1.61c.01-.51.13-1.01.35-1.48.22-.47.51-.88.88-1.22.37-.34.8-.61,1.31-.8s1.05-.29,1.64-.29c.78.01,1.47.19,2.08.54.37.22.7.49.99.81.28.32.51.66.67,1.02.16.36.25.71.26,1.04Zm-4.89-.28h1.67c0-.05,0-.1-.01-.14-.07-.45-.39-.68-.95-.68-.33.08-.56.31-.68.69-.02.05-.03.1-.03.12Z"/>
    <path class="cls-4" d="m44.57,10.87c.3-.06.53-.09.69-.09.69,0,1.27.23,1.73.68v.04l1.29-.69c.11-.07.24-.11.39-.11.22,0,.41.08.56.25.38.38.57.85.57,1.42v4.74c0,.46-.15.84-.44,1.13s-.66.44-1.1.44l-1.28-.72v.07c-.42.45-1,.67-1.72.67-.24,0-.5-.03-.8-.08-.42-.08-.84-.26-1.24-.54-.4-.28-.75-.64-1.05-1.08-.2-.34-.35-.7-.45-1.07s-.15-.81-.15-1.3c.03-.63.18-1.21.45-1.74s.63-.97,1.07-1.32c.44-.35.93-.58,1.46-.68Zm.12,3.94c0,.32.09.6.28.84.21.25.46.38.77.38.18,0,.36-.05.52-.15.16-.1.29-.24.39-.43.08-.14.13-.27.14-.4,0-.1.01-.25.01-.44-.07-.47-.28-.79-.64-.95-.15-.07-.3-.11-.44-.11-.25,0-.47.09-.65.27s-.3.43-.36.73c0,.05,0,.09-.01.12,0,.04,0,.08-.02.13Z"/>
    <path class="cls-4" d="m50.28,11.28c.27-.24.59-.36.96-.36h.14v-.68c0-.43.15-.8.46-1.13.3-.3.66-.45,1.09-.45s.8.16,1.11.46c.31.34.46.72.46,1.15v.64h.18c.36,0,.66.12.92.38.26.26.4.58.4.94,0,.1-.01.2-.04.31s-.07.21-.13.3c-.06.1-.12.19-.19.27-.27.27-.59.41-.96.42h-.19v3.55c0,.45-.15.83-.46,1.13-.29.31-.66.46-1.09.46s-.8-.15-1.1-.46c-.31-.32-.46-.71-.46-1.15v-3.57h-.11c-.39,0-.73-.14-1.01-.42-.24-.24-.36-.53-.36-.87,0-.37.13-.68.4-.94Z"/>
    <path class="cls-4" d="m64.06,14.25c0,.46-.1.78-.29.96s-.52.28-.98.28h-3.64s.1.12.25.27c.13.1.26.17.38.22.12.05.28.09.49.12.21.03.45.04.75.04.28-.01.64-.08,1.07-.2.33-.08.57-.12.7-.12.37,0,.66.11.89.32s.33.48.33.79c0,.11,0,.2-.03.27-.05.17-.13.33-.24.46s-.25.26-.42.37c-.18.11-.42.22-.74.33-.39.12-.79.2-1.2.25-.29.04-.59.05-.92.05-.68,0-1.3-.1-1.87-.3-.57-.2-1.05-.48-1.46-.84s-.71-.79-.92-1.29-.31-1.03-.31-1.61c.01-.51.13-1.01.35-1.48.22-.47.51-.88.88-1.22.37-.34.8-.61,1.31-.8s1.05-.29,1.64-.29c.78.01,1.47.19,2.08.54.37.22.7.49.99.81.28.32.51.66.67,1.02.16.36.25.71.26,1.04Zm-4.89-.28h1.67c0-.05,0-.1-.01-.14-.07-.45-.39-.68-.95-.68-.33.08-.56.31-.68.69-.02.05-.03.1-.03.12Z"/>
    <path class="cls-4" d="m69.49,11.09c.09.03.17.07.24.1v-2.17c0-.43.15-.79.45-1.1.3-.3.67-.46,1.1-.46.28,0,.54.08.77.22.24.14.42.34.56.58s.21.5.21.78v8.05c0,.3-.07.57-.2.8-.13.23-.32.42-.55.55s-.49.2-.79.2l-1.29-.77v.05c-.44.49-1.03.74-1.75.74-.19,0-.41-.02-.68-.07-.73-.14-1.37-.49-1.9-1.06-.53-.56-.87-1.25-1.03-2.07-.05-.27-.07-.53-.07-.78,0-.31.03-.61.1-.88.13-.56.35-1.05.66-1.48s.68-.77,1.12-1.03c.53-.31,1.1-.47,1.7-.47.43,0,.88.08,1.35.25Zm-1.82,3.64c0,.37.1.68.31.91s.47.35.77.35c.27,0,.49-.1.67-.28s.3-.43.35-.77v-.46c-.1-.54-.38-.86-.83-.96-.11-.02-.19-.03-.24-.03-.26,0-.48.09-.67.27s-.31.43-.36.75c0,.05-.01.12-.01.23Z"/>
    <path class="cls-4" d="m79.23,18.65c-.43,0-.79-.15-1.09-.44s-.44-.67-.44-1.13v-8.04c0-.42.15-.79.45-1.09s.67-.46,1.09-.47c.29,0,.56.07.8.21.24.14.43.34.56.57.14.24.21.5.21.79v2.03s.1-.04.24-.08c.43-.14.83-.21,1.2-.21.21,0,.42.03.64.08.51.1.97.28,1.37.54.4.27.74.61,1,1.02s.46.89.57,1.42c.06.29.09.56.09.83,0,.65-.14,1.26-.41,1.83s-.64,1.04-1.1,1.41c-.46.37-.96.61-1.5.7-.26.05-.49.07-.68.07-.74,0-1.34-.24-1.78-.72v-.05l-1.23.75Zm1.47-3.85c0,.36.11.65.31.87.21.22.45.33.75.33.06,0,.13,0,.23-.03.15-.03.29-.1.41-.2s.22-.23.3-.4.11-.35.12-.55c0-.4-.11-.71-.33-.94s-.52-.33-.89-.33c-.23.04-.42.15-.58.32-.16.17-.26.39-.3.66,0,.07-.01.16-.01.27Z"/>
    <path class="cls-4" d="m86.61,10.98c.22-.1.45-.16.68-.16.21,0,.4.05.59.14s.36.23.52.42c.16.19.28.42.37.68l.79,2.19.71-2.15c.06-.2.15-.41.28-.63.12-.21.29-.37.51-.48.21-.11.44-.17.68-.17.46,0,.86.18,1.19.53.26.27.38.6.38,1,0,.24-.05.47-.16.7l-3.45,7.92c-.33.76-.81,1.13-1.44,1.13-.13,0-.29-.03-.49-.1-.33-.1-.59-.28-.78-.52-.18-.24-.28-.52-.28-.84,0-.21.05-.42.16-.64l1.07-2.21-2.14-4.85c-.07-.16-.11-.35-.11-.55,0-.3.08-.58.24-.84.16-.26.38-.45.66-.58Z"/>
  </g>
  <g class="cls-1">
    <path class="cls-4" d="m19.03,33.65c-.31-.34-.46-.73-.46-1.18v-6.84c0-.54.15-.97.45-1.29s.69-.49,1.16-.49h3.01c.75,0,1.42.16,2.01.48.59.32,1.04.76,1.37,1.31.32.55.49,1.17.49,1.85-.02.97-.33,1.78-.94,2.41s-1.41,1.02-2.43,1.14c-.21.03-.41.04-.62.04h-1.26v1.4c0,.48-.16.88-.49,1.19-.31.31-.68.46-1.12.46s-.84-.17-1.16-.5Zm2.77-5.38h1.29c.21,0,.4-.08.55-.23.16-.16.24-.34.24-.54s-.08-.38-.23-.53c-.16-.15-.35-.23-.56-.23h-1.29v1.52Z"/>
    <path class="cls-4" d="m30.02,26.34c.3-.06.53-.09.69-.09.69,0,1.27.23,1.73.68v.04l1.29-.69c.11-.07.24-.11.39-.11.22,0,.41.08.56.25.38.38.57.85.57,1.42v4.74c0,.46-.15.84-.44,1.13s-.66.44-1.1.44l-1.28-.72v.07c-.42.45-1,.67-1.72.67-.24,0-.5-.03-.8-.08-.42-.08-.84-.26-1.24-.54-.4-.28-.75-.64-1.05-1.08-.2-.34-.35-.7-.45-1.07s-.15-.81-.15-1.3c.03-.63.18-1.21.45-1.74s.63-.97,1.07-1.32c.44-.35.93-.58,1.46-.68Zm.12,3.94c0,.32.09.6.28.84.21.25.46.38.77.38.18,0,.36-.05.52-.15.16-.1.29-.24.39-.43.08-.14.13-.27.14-.4,0-.1.01-.25.01-.44-.07-.47-.28-.79-.64-.95-.15-.07-.3-.11-.44-.11-.25,0-.47.09-.65.27s-.3.43-.36.73c0,.05,0,.09-.01.12,0,.04,0,.08-.02.13Z"/>
    <path class="cls-4" d="m35.74,26.76c.27-.24.59-.36.96-.36h.14v-.68c0-.43.15-.8.46-1.13.3-.3.66-.45,1.09-.45s.8.16,1.11.46c.31.34.46.72.46,1.15v.64h.18c.36,0,.66.12.92.38.26.26.4.58.4.94,0,.1-.01.2-.04.31s-.07.21-.13.3c-.06.1-.12.19-.19.27-.27.27-.59.41-.96.42h-.19v3.55c0,.45-.15.83-.46,1.13-.29.31-.66.46-1.09.46s-.8-.15-1.1-.46c-.31-.32-.46-.71-.46-1.15v-3.57h-.11c-.39,0-.73-.14-1.01-.42-.24-.24-.36-.53-.36-.87,0-.37.13-.68.4-.94Z"/>
    <path class="cls-4" d="m43.02,34.14c-.43,0-.8-.15-1.1-.44-.31-.29-.46-.65-.46-1.08v-4.73c0-.43.15-.8.46-1.11s.67-.46,1.1-.46l1.44.98v-.07l.08-.1.17-.18c.37-.39.77-.59,1.19-.6.15,0,.28.02.39.05.27.07.5.2.69.4s.31.42.36.68c.02.16.03.27.03.34,0,.33-.11.62-.34.86-.23.24-.59.44-1.09.61-.05.02-.09.03-.13.05s-.09.03-.15.06c-.23.09-.42.18-.57.28s-.26.2-.33.32-.13.26-.16.43c-.03.17-.04.41-.04.7v1.37c0,.3-.07.57-.21.82-.14.25-.32.45-.56.59s-.49.22-.77.23Z"/>
    <path class="cls-4" d="m47.99,25.52c-.32-.32-.48-.72-.48-1.19s.16-.85.49-1.19c.16-.16.34-.27.53-.36s.4-.12.62-.12c.45,0,.84.17,1.16.51.31.33.47.72.47,1.18s-.16.86-.47,1.18-.7.47-1.16.47-.85-.16-1.16-.47Zm1.16,8.65c-.43,0-.79-.15-1.1-.46-.3-.3-.45-.67-.45-1.11v-4.72c0-.29.07-.55.21-.79.14-.24.33-.43.57-.57.24-.14.5-.21.79-.21.28,0,.54.08.78.22s.42.33.56.57.21.5.21.79v4.69c0,.44-.15.82-.46,1.12s-.67.46-1.11.46Z"/>
    <path class="cls-4" d="m52.22,32.53c-.52-.72-.79-1.5-.79-2.32,0-.42.09-.84.26-1.27.17-.43.4-.82.69-1.17.21-.24.41-.43.6-.57.36-.27.76-.48,1.2-.61.43-.13.92-.2,1.45-.2.29,0,.51,0,.66.03,1.56.16,2.34.8,2.34,1.91-.05.34-.21.61-.46.81s-.56.31-.93.31c-.07,0-.15,0-.24-.03h-.07s-.36-.1-.36-.1l-.18-.04-.29-.06c-.08-.02-.21-.03-.38-.03-.36,0-.66.1-.88.3-.22.2-.33.48-.33.82.01.21.06.38.15.52.09.14.22.26.39.37.19.1.39.16.62.16.12,0,.27-.01.44-.04h.04l.49-.12c.13-.03.31-.05.53-.07.46,0,.81.14,1.08.41s.39.65.39,1.13c-.04.3-.17.56-.39.78-.22.22-.54.39-.98.52s-.97.18-1.6.18c-.76-.01-1.43-.16-2.02-.43-.59-.27-1.07-.67-1.45-1.19Z"/>
    <path class="cls-4" d="m59.68,25.52c-.32-.32-.48-.72-.48-1.19s.16-.85.49-1.19c.16-.16.34-.27.53-.36s.4-.12.62-.12c.45,0,.84.17,1.16.51.31.33.47.72.47,1.18s-.16.86-.47,1.18-.7.47-1.16.47-.85-.16-1.16-.47Zm1.16,8.65c-.43,0-.79-.15-1.1-.46-.3-.3-.45-.67-.45-1.11v-4.72c0-.29.07-.55.21-.79.14-.24.33-.43.57-.57.24-.14.5-.21.79-.21.28,0,.54.08.78.22s.42.33.56.57.21.5.21.79v4.69c0,.44-.15.82-.46,1.12s-.67.46-1.11.46Z"/>
    <path class="cls-4" d="m66.1,26.34c.3-.06.53-.09.69-.09.69,0,1.27.23,1.73.68v.04l1.29-.69c.11-.07.24-.11.39-.11.22,0,.41.08.56.25.38.38.57.85.57,1.42v4.74c0,.46-.15.84-.44,1.13s-.66.44-1.1.44l-1.28-.72v.07c-.42.45-1,.67-1.72.67-.24,0-.5-.03-.8-.08-.42-.08-.84-.26-1.24-.54-.4-.28-.75-.64-1.05-1.08-.2-.34-.35-.7-.45-1.07s-.15-.81-.15-1.3c.03-.63.18-1.21.45-1.74s.63-.97,1.07-1.32c.44-.35.93-.58,1.46-.68Zm.12,3.94c0,.32.09.6.28.84.21.25.46.38.77.38.18,0,.36-.05.52-.15.16-.1.29-.24.39-.43.08-.14.13-.27.14-.4,0-.1.01-.25.01-.44-.07-.47-.28-.79-.64-.95-.15-.07-.3-.11-.44-.11-.25,0-.47.09-.65.27s-.3.43-.36.73c0,.05,0,.09-.01.12,0,.04,0,.08-.02.13Z"/>
    <path class="cls-4" d="m78.47,31.38c.21,0,.35-.07.44-.21.09-.14.13-.37.13-.7v-5.09c0-.46.16-.84.48-1.16.32-.32.69-.48,1.12-.48s.82.16,1.13.49.46.72.46,1.18v5.06c0,.77-.14,1.42-.42,1.98s-.67.98-1.19,1.27-1.12.44-1.83.44c-.25,0-.45,0-.59-.03-.27-.04-.46-.07-.59-.1-.62-.15-1.09-.39-1.42-.71-.32-.32-.49-.67-.49-1.04,0-.22.05-.43.16-.63.25-.42.62-.64,1.11-.66.19,0,.39.03.6.1.05,0,.08.02.12.03.03.01.06.02.08.02l.21.08.19.09s.13.03.27.05Z"/>
    <path class="cls-4" d="m83.48,25.52c-.32-.32-.48-.72-.48-1.19s.16-.85.49-1.19c.16-.16.34-.27.53-.36s.4-.12.62-.12c.45,0,.84.17,1.16.51.31.33.47.72.47,1.18s-.16.86-.47,1.18-.7.47-1.16.47-.85-.16-1.16-.47Zm1.16,8.65c-.43,0-.79-.15-1.1-.46-.3-.3-.45-.67-.45-1.11v-4.72c0-.29.07-.55.21-.79.14-.24.33-.43.57-.57.24-.14.5-.21.79-.21.28,0,.54.08.78.22s.42.33.56.57.21.5.21.79v4.69c0,.44-.15.82-.46,1.12s-.67.46-1.11.46Z"/>
    <path class="cls-4" d="m89.9,26.34c.3-.06.53-.09.69-.09.69,0,1.27.23,1.73.68v.04l1.29-.69c.11-.07.24-.11.39-.11.22,0,.41.08.56.25.38.38.57.85.57,1.42v4.74c0,.46-.15.84-.44,1.13s-.66.44-1.1.44l-1.28-.72v.07c-.42.45-1,.67-1.72.67-.24,0-.5-.03-.8-.08-.42-.08-.84-.26-1.24-.54-.4-.28-.75-.64-1.05-1.08-.2-.34-.35-.7-.45-1.07s-.15-.81-.15-1.3c.03-.63.18-1.21.45-1.74s.63-.97,1.07-1.32c.44-.35.93-.58,1.46-.68Zm.12,3.94c0,.32.09.6.28.84.21.25.46.38.77.38.18,0,.36-.05.52-.15.16-.1.29-.24.39-.43.08-.14.13-.27.14-.4,0-.1.01-.25.01-.44-.07-.47-.28-.79-.64-.95-.15-.07-.3-.11-.44-.11-.25,0-.47.09-.65.27s-.3.43-.36.73c0,.05,0,.09-.01.12,0,.04,0,.08-.02.13Z"/>
    <path class="cls-4" d="m96.41,33.71c-.3-.31-.45-.69-.45-1.12v-4.7c0-.46.15-.83.45-1.12.3-.29.66-.44,1.1-.44l1.23.77v-.05s.1-.08.2-.14c.64-.39,1.28-.59,1.9-.59.18,0,.4.03.67.08.46.1.86.27,1.2.53s.61.56.79.92.27.74.27,1.14v3.62c0,.29-.07.56-.21.79s-.33.43-.56.57-.5.21-.78.22c-.44,0-.81-.15-1.12-.45s-.46-.67-.46-1.11v-2.94c0-.22-.08-.4-.23-.55-.15-.17-.33-.25-.55-.25s-.4.08-.55.23c-.16.17-.24.36-.24.57v2.93c0,.44-.15.81-.46,1.12-.3.3-.66.44-1.09.44s-.8-.15-1.11-.44Z"/>
    <path class="cls-4" d="m107.44,26.37c.25-.05.49-.08.75-.08.7,0,1.25.22,1.66.65v.07l1.29-.72c.1-.07.22-.11.38-.11.22,0,.41.08.57.25.38.4.57.88.57,1.44v4.79c0,.78-.09,1.47-.28,2.08s-.46,1.12-.82,1.53c-.36.41-.81.72-1.35.94-.54.21-1.14.32-1.81.32-.2,0-.34,0-.43-.01-.85-.05-1.51-.21-1.98-.48-.38-.21-.66-.43-.84-.67-.18-.24-.28-.5-.28-.75,0-.2.05-.39.14-.57.23-.47.6-.71,1.11-.71.17,0,.35.03.53.08h.03l.46.18s.04.02.09.03.09.03.13.05c.35.12.71.18,1.09.18.35-.05.61-.14.78-.27s.27-.33.29-.58c0-.05.01-.11.01-.18-.45.25-.92.38-1.39.38-.18,0-.42-.03-.73-.08-.42-.08-.82-.23-1.2-.46-.56-.36-.99-.82-1.3-1.4s-.46-1.22-.46-1.93c0-.52.08-1,.24-1.45.15-.44.36-.84.64-1.19.27-.35.59-.64.95-.87.36-.23.75-.38,1.16-.46Zm.12,3.88c0,.34.11.62.31.84.21.22.45.33.75.33.1,0,.2-.01.29-.04.4-.11.66-.4.79-.87,0-.1.01-.25.01-.45-.05-.31-.18-.57-.37-.75s-.42-.28-.68-.28c-.09,0-.19.01-.29.04-.18.06-.35.18-.51.33-.2.22-.29.51-.29.85Z"/>
    <path class="cls-4" d="m112.73,35.68c-.05-.17-.08-.34-.08-.52,0-.24.04-.45.12-.64l1.22-2.8c.13-.28.32-.5.56-.66.24-.16.51-.24.81-.24.22,0,.43.05.63.14.26.13.48.32.64.58.16.26.24.53.24.82,0,.24-.05.45-.14.63l-1.32,2.76c-.19.38-.47.64-.85.79-.15.06-.32.1-.51.1-.3,0-.57-.08-.81-.26-.24-.17-.41-.4-.52-.69Z"/>
    <path class="cls-4" d="m121.28,33.71c-.32-.32-.48-.71-.48-1.16v-7.16c0-.46.16-.84.48-1.16.32-.32.7-.48,1.15-.48s.82.16,1.15.49c.1.1.19.22.26.34.07.12.12.25.16.4s.06.29.06.42v2.04h3.17v-2.04c0-.21.04-.42.13-.63s.2-.38.35-.53c.32-.32.71-.49,1.15-.49.21,0,.42.04.62.12.21.08.38.2.53.35.1.1.19.22.26.34.07.12.12.25.16.4s.06.29.06.42v7.16c0,.21-.04.42-.13.63s-.2.38-.35.53c-.31.31-.69.47-1.13.47-.21,0-.41-.04-.6-.11-.19-.07-.37-.19-.55-.36-.32-.31-.48-.69-.48-1.16v-2.27h-3.21v2.27c0,.47-.16.86-.47,1.16-.15.16-.33.28-.53.36s-.4.12-.6.12c-.45,0-.83-.16-1.15-.47Z"/>
    <path class="cls-4" d="m139.34,29.73c0,.46-.1.78-.29.96s-.52.28-.98.28h-3.64s.1.12.25.27c.13.1.26.17.38.22.12.05.28.09.49.12.21.03.45.04.75.04.28-.01.64-.08,1.07-.2.33-.08.57-.12.7-.12.37,0,.66.11.89.32s.33.48.33.79c0,.11,0,.2-.03.27-.05.17-.13.33-.24.46s-.25.26-.42.37c-.18.11-.42.22-.74.33-.39.12-.79.2-1.2.25-.29.04-.59.05-.92.05-.68,0-1.3-.1-1.87-.3-.57-.2-1.05-.48-1.46-.84s-.71-.79-.92-1.29-.31-1.03-.31-1.61c.01-.51.13-1.01.35-1.48.22-.47.51-.88.88-1.22.37-.34.8-.61,1.31-.8s1.05-.29,1.64-.29c.78.01,1.47.19,2.08.54.37.22.7.49.99.81.28.32.51.66.67,1.02.16.36.25.71.26,1.04Zm-4.89-.28h1.67c0-.05,0-.1-.01-.14-.07-.45-.39-.68-.95-.68-.33.08-.56.31-.68.69-.02.05-.03.1-.03.12Z"/>
    <path class="cls-4" d="m144.78,26.56c.09.03.17.07.24.1v-2.17c0-.43.15-.79.45-1.1.3-.3.67-.46,1.1-.46.28,0,.54.08.77.22.24.14.42.34.56.58s.21.5.21.78v8.05c0,.3-.07.57-.2.8-.13.23-.32.42-.55.55s-.49.2-.79.2l-1.29-.77v.05c-.44.49-1.03.74-1.75.74-.19,0-.41-.02-.68-.07-.73-.14-1.37-.49-1.9-1.06-.53-.56-.87-1.25-1.03-2.07-.05-.27-.07-.53-.07-.78,0-.31.03-.61.1-.88.13-.56.35-1.05.66-1.48s.68-.77,1.12-1.03c.53-.31,1.1-.47,1.7-.47.43,0,.88.08,1.35.25Zm-1.82,3.64c0,.37.1.68.31.91s.47.35.77.35c.27,0,.49-.1.67-.28s.3-.43.35-.77v-.46c-.1-.54-.38-.86-.83-.96-.11-.02-.19-.03-.24-.03-.26,0-.48.09-.67.27s-.31.43-.36.75c0,.05-.01.12-.01.23Z"/>
    <path class="cls-4" d="m149.36,25.52c-.32-.32-.48-.72-.48-1.19s.16-.85.49-1.19c.16-.16.34-.27.53-.36s.4-.12.62-.12c.45,0,.84.17,1.16.51.31.33.47.72.47,1.18s-.16.86-.47,1.18-.7.47-1.16.47-.85-.16-1.16-.47Zm1.16,8.65c-.43,0-.79-.15-1.1-.46-.3-.3-.45-.67-.45-1.11v-4.72c0-.29.07-.55.21-.79.14-.24.33-.43.57-.57.24-.14.5-.21.79-.21.28,0,.54.08.78.22s.42.33.56.57.21.5.21.79v4.69c0,.44-.15.82-.46,1.12s-.67.46-1.11.46Z"/>
    <path class="cls-4" d="m160.98,29.73c0,.46-.1.78-.29.96s-.52.28-.98.28h-3.64s.1.12.25.27c.13.1.26.17.38.22.12.05.28.09.49.12.21.03.45.04.75.04.28-.01.64-.08,1.07-.2.33-.08.57-.12.7-.12.37,0,.66.11.89.32s.33.48.33.79c0,.11,0,.2-.03.27-.05.17-.13.33-.24.46s-.25.26-.42.37c-.18.11-.42.22-.74.33-.39.12-.79.2-1.2.25-.29.04-.59.05-.92.05-.68,0-1.3-.1-1.87-.3-.57-.2-1.05-.48-1.46-.84s-.71-.79-.92-1.29-.31-1.03-.31-1.61c.01-.51.13-1.01.35-1.48.22-.47.51-.88.88-1.22.37-.34.8-.61,1.31-.8s1.05-.29,1.64-.29c.78.01,1.47.19,2.08.54.37.22.7.49.99.81.28.32.51.66.67,1.02.16.36.25.71.26,1.04Zm-4.89-.28h1.67c0-.05,0-.1-.01-.14-.07-.45-.39-.68-.95-.68-.33.08-.56.31-.68.69-.02.05-.03.1-.03.12Z"/>
    <path class="cls-4" d="m163.17,34.16c-.42,0-.79-.15-1.09-.46-.3-.3-.45-.67-.45-1.11v-8.12c0-.27.07-.53.21-.77s.33-.42.56-.56c.24-.14.5-.21.79-.22.29,0,.56.07.79.21s.42.33.56.57c.14.24.21.5.21.78v2.27c.16-.09.35-.17.55-.24.49-.15.95-.23,1.37-.23s.79.07,1.14.2.63.31.87.54c.24.23.42.51.56.84s.2.69.2,1.07v3.68c0,.44-.15.82-.46,1.12-.31.31-.68.46-1.13.46-.43-.02-.8-.19-1.1-.49s-.45-.67-.45-1.11v-2.95c0-.21-.07-.39-.22-.55-.15-.16-.32-.25-.53-.25-.21,0-.4.08-.56.23s-.24.34-.24.56v2.97c0,.28-.07.54-.22.79s-.34.43-.58.56c-.24.13-.5.2-.79.2Z"/>
    <path class="cls-4" d="m174.79,33.69c-.32-.33-.48-.73-.48-1.19v-7.14c0-.29.07-.55.22-.8.15-.25.34-.45.59-.59.25-.14.53-.22.83-.22.29,0,.56.08.8.23s.44.34.58.59c.14.25.21.52.21.82v2.02l2.84-3.1c.13-.14.29-.26.48-.37.19-.09.42-.14.68-.14.32,0,.62.08.89.25.27.17.47.4.6.7.1.22.14.46.14.72,0,.43-.14.77-.41,1.03l-2.21,2.11,2.53,2.84c.27.31.41.67.41,1.08,0,.23-.05.46-.16.69-.11.23-.26.42-.45.57-.18.14-.38.23-.62.29-.19.04-.33.05-.42.05-.23,0-.45-.05-.66-.14-.21-.09-.39-.22-.53-.39l-3.12-3.83v2.73c0,.47-.16.86-.47,1.18-.31.31-.69.47-1.13.47-.2,0-.4-.04-.58-.11-.19-.07-.37-.19-.55-.36Z"/>
    <path class="cls-4" d="m185.39,34.16c-.42,0-.79-.15-1.09-.46s-.45-.67-.45-1.11v-8.12c0-.27.07-.53.21-.77.14-.24.33-.42.56-.56.24-.14.5-.21.79-.22.29,0,.56.07.79.21s.42.33.56.57c.14.24.21.5.21.78v2.27c.16-.09.35-.17.55-.24.49-.15.95-.23,1.37-.23s.79.07,1.14.2c.34.13.63.31.87.54.24.23.42.51.56.84.13.33.2.69.2,1.07v3.68c0,.44-.15.82-.46,1.12s-.69.46-1.13.46c-.43-.02-.8-.19-1.1-.49-.3-.31-.45-.67-.45-1.11v-2.95c0-.21-.07-.39-.22-.55-.15-.16-.32-.25-.53-.25-.21,0-.4.08-.56.23s-.24.34-.24.56v2.97c0,.28-.07.54-.21.79-.14.24-.34.43-.58.56-.24.13-.5.2-.79.2Z"/>
    <path class="cls-4" d="m195.33,26.34c.3-.06.53-.09.69-.09.69,0,1.27.23,1.73.68v.04l1.29-.69c.11-.07.24-.11.39-.11.22,0,.41.08.56.25.38.38.57.85.57,1.42v4.74c0,.46-.15.84-.44,1.13s-.66.44-1.1.44l-1.28-.72v.07c-.42.45-1,.67-1.72.67-.24,0-.5-.03-.8-.08-.42-.08-.84-.26-1.24-.54-.4-.28-.75-.64-1.05-1.08-.2-.34-.35-.7-.45-1.07s-.15-.81-.15-1.3c.03-.63.18-1.21.45-1.74.27-.53.63-.97,1.07-1.32.44-.35.93-.58,1.46-.68Zm.12,3.94c0,.32.09.6.28.84.21.25.46.38.77.38.18,0,.36-.05.52-.15.16-.1.29-.24.39-.43.08-.14.13-.27.14-.4,0-.1.01-.25.01-.44-.07-.47-.28-.79-.64-.95-.16-.07-.3-.11-.44-.11-.25,0-.47.09-.65.27s-.3.43-.36.73c0,.05,0,.09,0,.12,0,.04,0,.08-.02.13Z"/>
    <path class="cls-4" d="m202.94,34.14c-.43,0-.79-.15-1.1-.44-.31-.29-.46-.65-.46-1.08v-4.73c0-.43.15-.8.46-1.11s.67-.46,1.1-.46l1.44.98v-.07l.08-.1.17-.18c.37-.39.77-.59,1.19-.6.15,0,.28.02.39.05.27.07.5.2.69.4.19.2.31.42.36.68.02.16.03.27.03.34,0,.33-.11.62-.34.86-.23.24-.59.44-1.09.61-.05.02-.09.03-.13.05s-.09.03-.15.06c-.23.09-.42.18-.57.28-.15.1-.26.2-.34.32-.07.12-.13.26-.16.43-.03.17-.04.41-.04.7v1.37c0,.3-.07.57-.21.82-.14.25-.32.45-.56.59s-.49.22-.77.23Z"/>
    <path class="cls-4" d="m210.11,26.34c.3-.06.53-.09.69-.09.69,0,1.27.23,1.73.68v.04l1.29-.69c.11-.07.24-.11.39-.11.22,0,.41.08.56.25.38.38.57.85.57,1.42v4.74c0,.46-.15.84-.44,1.13s-.66.44-1.1.44l-1.28-.72v.07c-.42.45-1,.67-1.72.67-.24,0-.5-.03-.8-.08-.42-.08-.84-.26-1.24-.54-.4-.28-.75-.64-1.05-1.08-.2-.34-.35-.7-.45-1.07s-.15-.81-.15-1.3c.03-.63.18-1.21.45-1.74.27-.53.63-.97,1.07-1.32.44-.35.93-.58,1.46-.68Zm.12,3.94c0,.32.09.6.28.84.21.25.46.38.77.38.18,0,.36-.05.52-.15.16-.1.29-.24.39-.43.08-.14.13-.27.14-.4,0-.1.01-.25.01-.44-.07-.47-.28-.79-.64-.95-.16-.07-.3-.11-.44-.11-.25,0-.47.09-.65.27s-.3.43-.36.73c0,.05,0,.09,0,.12,0,.04,0,.08-.02.13Z"/>
    <path class="cls-4" d="m216.39,28.58c.16-.36.35-.69.59-.98.24-.29.51-.54.79-.73s.59-.34.9-.44c.31-.1.63-.15.95-.15.73,0,1.33.23,1.79.7v.07l1.29-.77c.12-.08.25-.12.39-.12.21,0,.39.08.55.25.39.41.59.9.59,1.47v8.19c0,.43-.15.79-.44,1.1-.29.31-.65.46-1.07.46-.29,0-.55-.07-.79-.21s-.43-.33-.58-.57c-.14-.24-.21-.51-.21-.79v-2.17c-.3.14-.63.23-.98.27-.2.02-.36.03-.46.03-.67,0-1.28-.17-1.84-.5-.56-.34-1-.8-1.33-1.39-.32-.59-.48-1.24-.48-1.96,0-.29.03-.59.08-.9.06-.31.15-.59.27-.85Zm2.73,1.76c0,.1,0,.17.01.21.11.62.51.94,1.22.94.23-.04.42-.13.57-.29s.25-.37.29-.64v-.51c-.04-.23-.13-.44-.28-.63-.2-.24-.45-.36-.76-.36s-.58.13-.79.39c-.15.2-.23.43-.26.69,0,.05-.01.11-.01.21Z"/>
    <path class="cls-4" d="m227.89,26.34c.3-.06.53-.09.69-.09.69,0,1.27.23,1.73.68v.04l1.29-.69c.11-.07.24-.11.39-.11.22,0,.41.08.56.25.38.38.57.85.57,1.42v4.74c0,.46-.15.84-.44,1.13s-.66.44-1.1.44l-1.28-.72v.07c-.42.45-1,.67-1.72.67-.24,0-.5-.03-.8-.08-.42-.08-.84-.26-1.24-.54-.4-.28-.75-.64-1.05-1.08-.2-.34-.35-.7-.45-1.07s-.15-.81-.15-1.3c.03-.63.18-1.21.45-1.74.27-.53.63-.97,1.07-1.32.44-.35.93-.58,1.46-.68Zm.12,3.94c0,.32.09.6.28.84.21.25.46.38.77.38.18,0,.36-.05.52-.15.16-.1.29-.24.39-.43.08-.14.13-.27.14-.4,0-.1.01-.25.01-.44-.07-.47-.28-.79-.64-.95-.16-.07-.3-.11-.44-.11-.25,0-.47.09-.65.27s-.3.43-.36.73c0,.05,0,.09,0,.12,0,.04,0,.08-.02.13Z"/>
    <path class="cls-4" d="m234.4,33.71c-.3-.31-.45-.69-.45-1.12v-4.7c0-.46.15-.83.45-1.12.3-.29.66-.44,1.1-.44l1.23.77v-.05s.1-.08.2-.14c.64-.39,1.28-.59,1.9-.59.18,0,.4.03.67.08.46.1.86.27,1.2.53s.61.56.79.92.27.74.27,1.14v3.62c0,.29-.07.56-.21.79-.14.24-.33.43-.56.57s-.5.21-.78.22c-.44,0-.81-.15-1.12-.45s-.46-.67-.46-1.11v-2.94c0-.22-.08-.4-.23-.55-.15-.17-.33-.25-.55-.25s-.4.08-.55.23c-.16.17-.24.36-.24.57v2.93c0,.44-.16.81-.46,1.12s-.66.44-1.09.44-.8-.15-1.11-.44Z"/>
    <path class="cls-4" d="m243.01,25.52c-.32-.32-.48-.72-.48-1.19s.16-.85.49-1.19c.16-.16.34-.27.53-.36s.4-.12.62-.12c.45,0,.84.17,1.16.51.31.33.47.72.47,1.18s-.16.86-.47,1.18-.7.47-1.16.47-.85-.16-1.16-.47Zm1.16,8.65c-.43,0-.79-.15-1.1-.46-.3-.3-.46-.67-.46-1.11v-4.72c0-.29.07-.55.21-.79.14-.24.33-.43.57-.57.24-.14.5-.21.79-.21.28,0,.54.08.78.22s.42.33.56.57c.14.24.21.5.21.79v4.69c0,.44-.15.82-.46,1.12s-.67.46-1.11.46Z"/>
    <path class="cls-4" d="m245.84,35.68c-.05-.17-.08-.34-.08-.52,0-.24.04-.45.12-.64l1.22-2.8c.13-.28.32-.5.56-.66.24-.16.51-.24.81-.24.22,0,.43.05.63.14.26.13.48.32.64.58.16.26.24.53.24.82,0,.24-.05.45-.14.63l-1.32,2.76c-.19.38-.47.64-.85.79-.16.06-.32.1-.51.1-.3,0-.57-.08-.81-.26-.24-.17-.41-.4-.52-.69Z"/>
    <path class="cls-4" d="m260.06,31.25c.48-.09.83-.28,1.03-.55h-.84c-.4,0-.74-.14-1.01-.42-.28-.28-.41-.62-.41-1.02,0-.26.08-.5.2-.71.12-.21.29-.38.51-.51.22-.13.45-.19.71-.19h2.71c1,0,1.5.55,1.5,1.65,0,.32-.03.65-.1.98-.06.42-.22.86-.47,1.31-.28.5-.63.92-1.06,1.28-.43.36-.93.63-1.48.82-.56.19-1.17.28-1.84.28-.38,0-.81-.04-1.27-.11-.64-.11-1.22-.3-1.73-.57-.52-.27-.97-.62-1.36-1.05s-.7-.92-.93-1.46c-.27-.65-.4-1.3-.4-1.97,0-.88.22-1.7.67-2.49.44-.78,1.07-1.43,1.88-1.94.88-.55,1.89-.83,3.02-.83.15,0,.36,0,.63.03.49.04.96.13,1.43.28.45.15.87.34,1.26.57.8.52,1.2,1.08,1.2,1.68,0,.36-.16.68-.49.96-.23.21-.51.31-.84.31-.24,0-.5-.06-.77-.17h-.01l-.59-.31c-.13-.07-.23-.12-.29-.15-.57-.26-1.1-.4-1.59-.4-.4,0-.75.08-1.07.24-.31.16-.58.39-.79.69s-.35.66-.42,1.06c-.03.13-.04.25-.04.38,0,.16.01.31.04.46.08.41.23.75.44,1.04.21.29.47.51.8.67.32.16.68.24,1.09.24.25,0,.49-.03.72-.09Z"/>
    <path class="cls-4" d="m265.59,33.72c-.31-.31-.46-.68-.46-1.12v-8.11c0-.27.07-.53.21-.77s.33-.42.57-.56c.24-.14.51-.21.8-.21.28,0,.53.08.77.22.24.14.42.33.55.57.13.24.2.49.2.77v8.07c0,.45-.15.83-.44,1.13-.32.3-.69.44-1.11.44s-.78-.15-1.09-.44Z"/>
    <path class="cls-4" d="m277.09,29.73c0,.46-.1.78-.29.96s-.52.28-.98.28h-3.64s.1.12.25.27c.13.1.26.17.38.22.12.05.28.09.49.12.21.03.45.04.75.04.28-.01.64-.08,1.07-.2.33-.08.57-.12.7-.12.37,0,.66.11.89.32.22.21.33.48.33.79,0,.11,0,.2-.03.27-.05.17-.13.33-.24.46-.11.14-.25.26-.42.37-.18.11-.42.22-.74.33-.39.12-.79.2-1.2.25-.29.04-.59.05-.92.05-.68,0-1.3-.1-1.87-.3-.57-.2-1.05-.48-1.46-.84s-.71-.79-.92-1.29-.31-1.03-.31-1.61c.01-.51.13-1.01.34-1.48.22-.47.51-.88.88-1.22.37-.34.8-.61,1.31-.8s1.05-.29,1.64-.29c.78.01,1.47.19,2.08.54.37.22.7.49.99.81.28.32.51.66.67,1.02.16.36.25.71.26,1.04Zm-4.89-.28h1.67c0-.05,0-.1-.01-.14-.07-.45-.38-.68-.95-.68-.33.08-.56.31-.68.69-.02.05-.03.1-.03.12Z"/>
    <path class="cls-4" d="m278.19,33.71c-.3-.31-.45-.69-.45-1.12v-4.7c0-.46.15-.83.45-1.12.3-.29.66-.44,1.1-.44l1.23.77v-.05s.1-.08.2-.14c.64-.39,1.28-.59,1.9-.59.18,0,.4.03.67.08.46.1.86.27,1.2.53s.61.56.79.92.27.74.27,1.14v3.62c0,.29-.07.56-.21.79-.14.24-.33.43-.56.57s-.5.21-.78.22c-.44,0-.81-.15-1.12-.45s-.46-.67-.46-1.11v-2.94c0-.22-.08-.4-.23-.55-.15-.17-.33-.25-.55-.25s-.4.08-.55.23c-.16.17-.24.36-.24.57v2.93c0,.44-.16.81-.46,1.12s-.66.44-1.09.44-.8-.15-1.11-.44Z"/>
    <path class="cls-4" d="m291.15,26.56c.09.03.17.07.24.1v-2.17c0-.43.15-.79.45-1.1.3-.3.67-.46,1.1-.46.28,0,.54.08.77.22.24.14.42.34.56.58s.21.5.21.78v8.05c0,.3-.07.57-.2.8-.13.23-.32.42-.55.55s-.49.2-.79.2l-1.29-.77v.05c-.44.49-1.03.74-1.75.74-.19,0-.41-.02-.68-.07-.73-.14-1.37-.49-1.9-1.06-.53-.56-.87-1.25-1.03-2.07-.05-.27-.07-.53-.07-.78,0-.31.03-.61.1-.88.13-.56.35-1.05.66-1.48s.68-.77,1.12-1.03c.53-.31,1.1-.47,1.7-.47.43,0,.88.08,1.35.25Zm-1.82,3.64c0,.37.1.68.31.91s.47.35.77.35c.27,0,.49-.1.67-.28.18-.18.3-.43.35-.77v-.46c-.1-.54-.38-.86-.83-.96-.11-.02-.19-.03-.24-.03-.26,0-.48.09-.67.27s-.31.43-.36.75c0,.05-.01.12-.01.23Z"/>
    <path class="cls-4" d="m298.15,26.34c.3-.06.53-.09.69-.09.69,0,1.27.23,1.73.68v.04l1.29-.69c.11-.07.24-.11.39-.11.22,0,.41.08.56.25.38.38.57.85.57,1.42v4.74c0,.46-.15.84-.44,1.13s-.66.44-1.1.44l-1.28-.72v.07c-.42.45-1,.67-1.72.67-.24,0-.5-.03-.8-.08-.42-.08-.84-.26-1.24-.54-.4-.28-.75-.64-1.05-1.08-.2-.34-.35-.7-.45-1.07s-.15-.81-.15-1.3c.03-.63.18-1.21.45-1.74.27-.53.63-.97,1.07-1.32.44-.35.93-.58,1.46-.68Zm.12,3.94c0,.32.09.6.28.84.21.25.46.38.77.38.18,0,.36-.05.52-.15.16-.1.29-.24.39-.43.08-.14.13-.27.14-.4,0-.1.01-.25.01-.44-.07-.47-.28-.79-.64-.95-.16-.07-.3-.11-.44-.11-.25,0-.47.09-.65.27s-.3.43-.36.73c0,.05,0,.09,0,.12,0,.04,0,.08-.02.13Z"/>
    <path class="cls-4" d="m309.29,32.11c-.37-.49-.65-1.02-.85-1.58-.2-.56-.3-1.11-.3-1.64s.1-1.08.3-1.62c.2-.54.5-1.06.89-1.54.86-1.06,2-1.69,3.42-1.89.39-.05.76-.08,1.11-.08.51,0,.97.06,1.37.17.4.11.73.26,1,.45.26.18.46.39.59.61.13.22.19.46.19.7,0,.33-.09.61-.28.84-.15.19-.29.33-.44.4-.15.08-.34.12-.58.12-.2,0-.36,0-.48-.03-.24-.04-.56-.14-.98-.29-.19-.05-.44-.08-.75-.08-.54,0-1,.16-1.38.47-.39.31-.64.76-.77,1.35-.03.14-.04.29-.04.44,0,.15.01.31.04.46.07.39.2.72.37.98s.4.47.67.61c.27.13.59.2.95.2.45,0,.99-.11,1.61-.32,0,0,.03-.01.06-.02s.06-.02.08-.02c.16-.04.33-.05.52-.05.45,0,.8.14,1.06.43.23.27.35.57.35.88,0,.29-.1.58-.29.87-.25.38-.7.69-1.35.94-.47.19-1.03.28-1.7.28-.33,0-.68-.03-1.05-.08-.97-.15-1.81-.53-2.53-1.13-.27-.22-.54-.49-.8-.81Z"/>
    <path class="cls-4" d="m319.19,34.16c-.42,0-.79-.15-1.09-.46s-.45-.67-.45-1.11v-8.12c0-.27.07-.53.21-.77.14-.24.33-.42.56-.56.24-.14.5-.21.79-.22.29,0,.56.07.79.21s.42.33.56.57c.14.24.21.5.21.78v2.27c.16-.09.35-.17.55-.24.49-.15.95-.23,1.37-.23s.79.07,1.14.2c.34.13.63.31.87.54.24.23.42.51.56.84.13.33.2.69.2,1.07v3.68c0,.44-.15.82-.46,1.12s-.69.46-1.13.46c-.43-.02-.8-.19-1.1-.49-.3-.31-.45-.67-.45-1.11v-2.95c0-.21-.07-.39-.22-.55-.15-.16-.32-.25-.53-.25-.21,0-.4.08-.56.23s-.24.34-.24.56v2.97c0,.28-.07.54-.21.79-.14.24-.34.43-.58.56-.24.13-.5.2-.79.2Z"/>
    <path class="cls-4" d="m334.32,29.73c0,.46-.1.78-.29.96s-.52.28-.98.28h-3.64s.1.12.25.27c.13.1.26.17.38.22.12.05.28.09.49.12.21.03.45.04.75.04.28-.01.64-.08,1.07-.2.33-.08.57-.12.7-.12.37,0,.66.11.89.32.22.21.33.48.33.79,0,.11,0,.2-.03.27-.05.17-.13.33-.24.46-.11.14-.25.26-.42.37-.18.11-.42.22-.74.33-.39.12-.79.2-1.2.25-.29.04-.59.05-.92.05-.68,0-1.3-.1-1.87-.3-.57-.2-1.05-.48-1.46-.84s-.71-.79-.92-1.29-.31-1.03-.31-1.61c.01-.51.13-1.01.34-1.48.22-.47.51-.88.88-1.22.37-.34.8-.61,1.31-.8s1.05-.29,1.64-.29c.78.01,1.47.19,2.08.54.37.22.7.49.99.81.28.32.51.66.67,1.02.16.36.25.71.26,1.04Zm-4.89-.28h1.67c0-.05,0-.1-.01-.14-.07-.45-.38-.68-.95-.68-.33.08-.56.31-.68.69-.02.05-.03.1-.03.12Z"/>
    <path class="cls-4" d="m338.13,34.15c-1.08-.12-1.87-.47-2.39-1.06-.52-.58-.78-1.41-.78-2.48v-2.73c0-.29.07-.56.21-.79s.33-.42.57-.56c.24-.14.5-.21.79-.21.43,0,.79.15,1.1.46.3.31.46.69.46,1.13v2.69c0,.26.06.46.18.59.1.13.25.21.43.25.34,0,.58-.08.72-.25.12-.12.18-.31.18-.59v-2.69c0-.29.07-.55.21-.8.14-.24.33-.44.57-.58.24-.14.5-.21.79-.21s.56.07.79.21c.24.14.42.33.56.56.14.24.21.5.21.79v2.73c0,.72-.11,1.33-.33,1.82-.22.49-.57.88-1.04,1.17-.47.29-1.07.47-1.79.55-.28.03-.51.05-.71.05-.21,0-.45-.02-.73-.05Z"/>
    <path class="cls-4" d="m344,33.71c-.3-.31-.45-.69-.45-1.12v-4.7c0-.46.15-.83.45-1.12.3-.29.66-.44,1.1-.44l1.23.77v-.05s.1-.08.2-.14c.64-.39,1.28-.59,1.9-.59.18,0,.4.03.67.08.46.1.86.27,1.2.53s.61.56.79.92.27.74.27,1.14v3.62c0,.29-.07.56-.21.79-.14.24-.33.43-.56.57s-.5.21-.78.22c-.44,0-.81-.15-1.12-.45s-.46-.67-.46-1.11v-2.94c0-.22-.08-.4-.23-.55-.15-.17-.33-.25-.55-.25s-.4.08-.55.23c-.16.17-.24.36-.24.57v2.93c0,.44-.16.81-.46,1.12s-.66.44-1.09.44-.8-.15-1.11-.44Z"/>
    <path class="cls-4" d="m355.03,26.37c.25-.05.49-.08.75-.08.7,0,1.25.22,1.66.65v.07l1.29-.72c.1-.07.22-.11.38-.11.22,0,.42.08.57.25.38.4.57.88.57,1.44v4.79c0,.78-.09,1.47-.28,2.08-.19.61-.46,1.12-.82,1.53-.36.41-.81.72-1.35.94-.54.21-1.14.32-1.81.32-.2,0-.34,0-.43-.01-.85-.05-1.51-.21-1.98-.48-.38-.21-.66-.43-.84-.67-.19-.24-.28-.5-.28-.75,0-.2.05-.39.14-.57.23-.47.6-.71,1.11-.71.17,0,.35.03.53.08h.03l.46.18s.04.02.09.03c.05.01.09.03.13.05.35.12.71.18,1.09.18.35-.05.61-.14.78-.27s.27-.33.29-.58c0-.05.01-.11.01-.18-.45.25-.92.38-1.39.38-.18,0-.42-.03-.73-.08-.42-.08-.82-.23-1.2-.46-.56-.36-1-.82-1.3-1.4-.31-.58-.46-1.22-.46-1.93,0-.52.08-1,.24-1.45.15-.44.37-.84.64-1.19.27-.35.59-.64.95-.87.36-.23.75-.38,1.16-.46Zm.12,3.88c0,.34.11.62.31.84.21.22.45.33.75.33.1,0,.2-.01.29-.04.4-.11.66-.4.79-.87,0-.1.01-.25.01-.45-.05-.31-.18-.57-.37-.75-.19-.19-.42-.28-.68-.28-.09,0-.19.01-.29.04-.18.06-.35.18-.51.33-.2.22-.29.51-.29.85Z"/>
  </g>
  <g class="cls-3">
    <path class="cls-4" d="m231.76,48.85c-.37-.49-.65-1.02-.85-1.58-.2-.56-.3-1.11-.3-1.64s.1-1.08.3-1.62c.2-.54.5-1.06.89-1.54.86-1.06,2-1.69,3.42-1.89.39-.05.76-.08,1.11-.08.51,0,.97.06,1.37.17.4.11.73.26,1,.45.26.18.46.39.59.61.13.22.19.46.19.7,0,.33-.09.61-.28.84-.15.19-.29.33-.44.4-.15.08-.34.12-.58.12-.2,0-.36,0-.48-.03-.24-.04-.56-.14-.98-.29-.19-.05-.44-.08-.75-.08-.54,0-1,.16-1.38.47-.39.31-.64.76-.77,1.35-.03.14-.04.29-.04.44,0,.15.01.31.04.46.07.39.2.72.37.98s.4.47.67.61c.27.13.59.2.95.2.45,0,.99-.11,1.61-.32,0,0,.03-.01.06-.02s.06-.02.08-.02c.16-.04.33-.05.52-.05.45,0,.8.14,1.06.43.23.27.35.57.35.88,0,.29-.1.58-.29.87-.25.38-.7.69-1.35.94-.47.19-1.03.28-1.7.28-.33,0-.68-.03-1.05-.08-.97-.15-1.81-.53-2.53-1.13-.27-.22-.54-.49-.8-.81Z"/>
    <path class="cls-4" d="m240.93,48.61c-.21-.29-.38-.6-.52-.93-.14-.33-.24-.65-.31-.98-.07-.33-.11-.66-.11-1s.04-.66.11-.99c.07-.33.18-.66.32-.99.14-.33.31-.64.51-.93.33-.48.72-.89,1.19-1.24s.97-.61,1.53-.8c.55-.18,1.12-.28,1.71-.28.44,0,.87.05,1.3.16.43.1.83.26,1.22.46.39.2.75.45,1.07.73.32.28.6.6.84.96.62.9.94,1.87.94,2.91,0,.51-.08,1.02-.24,1.51-.16.49-.39.96-.7,1.4-.24.35-.53.67-.86.97-.33.29-.68.54-1.05.73-.37.19-.77.34-1.21.45-.44.11-.88.17-1.31.17-.58,0-1.15-.09-1.71-.27-.55-.18-1.06-.45-1.53-.8-.47-.35-.86-.77-1.19-1.24Zm2.27-2.91c0,.45.1.86.29,1.23.19.37.45.66.78.86.33.2.68.3,1.07.3.14,0,.28-.01.42-.04.26-.05.49-.15.7-.29s.4-.31.56-.52c.16-.21.29-.44.37-.7.09-.26.13-.54.13-.83,0-.14-.01-.29-.04-.45-.07-.4-.2-.74-.4-1.03-.2-.29-.45-.51-.75-.68s-.63-.25-.98-.25c-.4,0-.76.1-1.09.3-.33.2-.59.49-.78.86s-.29.78-.29,1.22Z"/>
    <path class="cls-4" d="m251.15,49.53c0-.25,0-.42.01-.53l1.15-6.72c.06-.39.2-.73.43-1.02.23-.29.51-.5.84-.62.29-.11.58-.16.85-.16.47,0,.9.14,1.27.42.37.28.62.65.75,1.12l1.03,3.54,1.04-3.54c.14-.47.4-.84.77-1.12.37-.28.79-.42,1.26-.42.27,0,.56.05.85.16.34.12.62.33.84.62s.36.63.43,1.03l1.13,6.72c.02.11.03.29.03.53-.04.39-.21.72-.52.98-.3.26-.66.39-1.06.39-.18,0-.36-.03-.53-.08-.3-.1-.54-.27-.73-.51s-.3-.5-.33-.79l-.49-4.06-1.29,4.25c-.1.35-.22.61-.36.78-.14.17-.31.3-.52.37-.22.08-.41.12-.56.12-.31,0-.58-.11-.81-.32s-.41-.53-.53-.94l-1.31-4.25-.48,4.06c-.03.3-.14.56-.33.79s-.43.4-.72.51c-.18.05-.36.08-.53.08-.4,0-.75-.13-1.06-.39s-.48-.59-.52-.98Z"/>
    <path class="cls-4" d="m264.86,50.4c-.31-.34-.46-.73-.46-1.18v-6.84c0-.54.15-.97.45-1.29s.69-.49,1.16-.49h3.01c.75,0,1.42.16,2.01.48.59.32,1.04.76,1.37,1.31.32.55.49,1.17.49,1.85-.02.97-.33,1.78-.94,2.41s-1.41,1.02-2.43,1.14c-.21.03-.42.04-.62.04h-1.26v1.4c0,.48-.16.88-.49,1.19-.31.31-.68.46-1.12.46s-.84-.17-1.16-.5Zm2.77-5.38h1.29c.21,0,.4-.08.55-.23.16-.16.24-.34.24-.54s-.08-.38-.23-.53c-.16-.15-.35-.23-.56-.23h-1.29v1.52Z"/>
    <path class="cls-4" d="m277.2,46.9c.03-.07.1-.19.19-.36l3.39-4.83c.31-.44.6-.75.88-.94.28-.18.59-.28.94-.29.78,0,1.35.21,1.7.63s.52,1.07.52,1.96v3.02h.14c.39,0,.71.13.98.4s.4.6.4,1c0,.25-.06.48-.18.7s-.29.38-.51.51c-.22.13-.45.19-.71.19h-.14v.35c0,.29-.07.57-.22.82s-.34.45-.59.6c-.25.14-.52.21-.82.21s-.57-.07-.81-.21c-.24-.14-.44-.34-.58-.59-.14-.25-.21-.52-.21-.81v-.4h-2.83c-.09,0-.21,0-.38-.03-.37-.05-.68-.22-.91-.48-.23-.27-.35-.57-.35-.9,0-.22.04-.41.12-.56Zm2.94-.81h1.43v-2.24l-1.43,2.24Z"/>
    <path class="cls-4" d="m288.24,41.01c.29-.27.62-.4,1-.4h2.19c.46,0,.83.14,1.1.41.27.28.41.65.41,1.12v7.13c0,.29-.07.55-.21.8-.14.25-.34.44-.58.59-.25.14-.52.21-.82.21-.29,0-.56-.08-.81-.22-.25-.14-.45-.34-.59-.59-.14-.25-.22-.52-.22-.81v-5.82h-.46c-.39,0-.72-.15-1-.44-.28-.26-.42-.59-.42-.99s.13-.73.4-1Z"/>
    <path class="cls-4" d="m296.79,41.01c.31-.27.64-.4,1.02-.4h5.61c.39,0,.72.11.99.32.17.14.3.3.39.5.09.2.14.39.14.58,0,.22-.06.43-.17.63l-4.13,7.33c-.15.27-.36.49-.63.65-.27.16-.56.24-.85.24-.27,0-.53-.06-.76-.18-.26-.14-.47-.34-.62-.58-.15-.25-.22-.51-.22-.79s.08-.55.23-.81l3.31-5.07h-3.29c-.4,0-.74-.15-1.03-.44-.27-.27-.4-.59-.4-.98,0-.18.03-.36.1-.53s.17-.33.31-.46Z"/>
    <path class="cls-4" d="m305.73,46.67c-.05-.36-.07-.68-.07-.98s.02-.62.07-.97c.13-.84.38-1.56.76-2.17s.86-1.09,1.44-1.44c.72-.44,1.46-.66,2.19-.66s1.45.22,2.19.66c.58.36,1.06.85,1.44,1.46.38.61.62,1.33.74,2.15.05.25.07.58.07.97s-.02.71-.07.98c-.08.55-.22,1.05-.42,1.51s-.45.86-.74,1.2c-.29.34-.63.63-1.02.87-.73.44-1.46.66-2.19.66s-1.47-.22-2.19-.66c-.59-.36-1.07-.83-1.44-1.44-.37-.6-.63-1.32-.76-2.15Zm2.93-.98c0,.12,0,.29.03.51.16,1.22.59,1.88,1.29,1.98.33,0,.6-.08.81-.23.21-.15.38-.4.53-.75.07-.19.12-.35.16-.48.07-.4.11-.75.11-1.05,0-.46-.06-.87-.19-1.23-.12-.36-.28-.65-.48-.86-.19-.21-.39-.32-.59-.35-.34,0-.61.07-.81.21s-.39.39-.56.74c-.2.42-.29.92-.29,1.5Z"/>
    <path class="cls-4" d="m319.73,48.34c-.19-.92-.28-1.79-.28-2.63s.09-1.7.28-2.62c.09-.45.19-.86.31-1.24.11-.4.22-.73.32-1,.15-.4.27-.7.39-.91.11-.2.23-.35.36-.44.13-.09.3-.16.51-.19.12-.02.2-.03.24-.03.28,0,.54.09.76.26.17.14.3.28.38.44s.13.33.13.53c0,.12-.03.32-.1.6v.03s-.29.83-.29.83c-.2.6-.33,1.15-.42,1.63-.15.83-.23,1.53-.23,2.11s.08,1.27.23,2.11c.09.52.23,1.07.42,1.63l.23.68.07.19c.07.21.11.4.11.56,0,.38-.18.72-.53,1-.23.17-.56.25-1,.25-.21-.04-.38-.11-.51-.21-.13-.1-.25-.24-.36-.44-.11-.2-.24-.5-.39-.9-.07-.21-.18-.55-.32-1.02-.12-.4-.23-.81-.31-1.23Z"/>
    <path class="cls-4" d="m324.49,50.31c-.36-.22-.6-.44-.73-.65-.13-.21-.19-.49-.19-.82.01-.31.09-.57.23-.78.26-.39.6-.59,1-.59.16,0,.33.02.49.05l.62.16.56.14.4.1.15.04c.1.01.18.03.24.04.19.03.35.05.49.05s.28-.02.39-.06c.16-.05.28-.1.33-.15.09-.07.13-.15.13-.24,0-.1-.05-.18-.14-.24-.02,0-.05-.02-.11-.04l-.27-.1-.18-.05-.75-.18-.14-.03-.92-.27c-.51-.14-.93-.31-1.29-.53-.38-.25-.67-.56-.88-.95-.21-.39-.31-.81-.31-1.27,0-.37.07-.74.21-1.1.14-.36.35-.7.62-.99.31-.34.7-.62,1.17-.85s1.01-.38,1.61-.45c.24-.03.48-.04.73-.04.52,0,1.02.07,1.5.21.53.16.92.34,1.18.54.26.2.43.45.52.74.05.18.07.35.07.49,0,.29-.08.54-.23.75-.14.2-.29.35-.47.44-.17.1-.38.14-.62.14-.25,0-.54-.05-.87-.14l-.11-.04-.4-.13-.17-.04-.39-.1-.2-.05-.14-.03s-.05,0-.08,0c-.02,0-.06,0-.11,0-.26,0-.44.04-.53.12-.08.07-.12.15-.12.24,0,.06.03.11.08.15.05.04.12.07.23.1l.27.08.1.03.28.07.46.11.92.27c.48.14.89.3,1.22.46.25.13.47.28.67.46.19.18.36.38.49.61.13.22.23.45.3.69s.1.49.1.75c0,.74-.26,1.42-.79,2.04-.8.97-1.99,1.46-3.55,1.46-.12,0-.32,0-.6-.03-1.11-.06-1.93-.25-2.46-.57Z"/>
    <path class="cls-4" d="m340.49,46.47c0,.46-.1.78-.29.96s-.52.28-.98.28h-3.64s.1.12.25.27c.13.1.26.17.38.22.12.05.28.09.49.12.21.03.45.04.75.04.28-.01.64-.08,1.07-.2.33-.08.57-.12.7-.12.37,0,.66.11.89.32.22.21.33.48.33.79,0,.11,0,.2-.03.27-.05.17-.13.33-.24.46-.11.14-.25.26-.42.37-.18.11-.42.22-.74.33-.39.12-.79.2-1.2.25-.29.04-.59.05-.92.05-.68,0-1.3-.1-1.87-.3-.57-.2-1.05-.48-1.46-.84s-.71-.79-.92-1.29-.31-1.03-.31-1.61c.01-.51.13-1.01.34-1.48.22-.47.51-.88.88-1.22.37-.34.8-.61,1.31-.8s1.05-.29,1.64-.29c.78.01,1.47.19,2.08.54.37.22.7.49.99.81.28.32.51.66.67,1.02.16.36.25.71.26,1.04Zm-4.89-.28h1.67c0-.05,0-.1-.01-.14-.07-.45-.38-.68-.95-.68-.33.08-.56.31-.68.69-.02.05-.03.1-.03.12Z"/>
    <path class="cls-4" d="m340.8,43.51c.27-.24.59-.36.96-.36h.14v-.68c0-.43.16-.8.46-1.13.3-.3.66-.45,1.09-.45s.8.16,1.11.46c.31.34.46.72.46,1.15v.64h.18c.36,0,.66.12.92.38.26.26.4.58.4.94,0,.1-.01.2-.04.31s-.07.21-.13.3c-.06.1-.12.19-.19.27-.27.27-.59.41-.96.42h-.19v3.55c0,.45-.16.83-.46,1.13-.29.31-.66.46-1.09.46s-.79-.15-1.1-.46c-.31-.32-.46-.71-.46-1.15v-3.57h-.11c-.39,0-.73-.14-1.01-.42-.24-.24-.36-.53-.36-.87,0-.37.13-.68.4-.94Z"/>
    <path class="cls-4" d="m352.21,50.97c-.45,0-.83-.16-1.15-.49s-.48-.71-.48-1.16v-7.07c0-.3.07-.57.22-.83s.35-.46.6-.6c.25-.14.53-.22.82-.22h3.82c.39,0,.73.15,1.03.44.27.27.4.6.4.99,0,.37-.14.71-.43,1.03-.31.27-.64.4-1.01.4h-2.19v1h1.86c.26,0,.5.06.71.2.21.13.37.3.5.52s.18.46.18.71c0,.26-.08.5-.21.71-.13.21-.3.37-.51.5s-.44.18-.68.18h-1.85v2.04c0,.45-.16.83-.48,1.16s-.7.49-1.15.49Z"/>
    <path class="cls-4" d="m358.01,51.88c-.16-.13-.28-.27-.37-.43-.09-.16-.15-.31-.16-.47,0-.19.04-.41.11-.66v-.04s.28-.83.28-.83c.06-.16.12-.34.18-.54.11-.42.19-.78.25-1.09.15-.77.22-1.48.22-2.11s-.07-1.34-.22-2.11c-.13-.6-.27-1.15-.44-1.63l-.21-.64-.07-.21c-.07-.23-.11-.42-.11-.57,0-.4.18-.73.53-1,.21-.17.46-.26.74-.26.06,0,.14,0,.25.03.3.05.53.18.7.38s.36.59.55,1.16c.09.25.2.58.32,1,.13.45.23.86.29,1.24.2.91.29,1.8.29,2.67,0,1.34-.26,2.84-.78,4.48-.07.19-.12.32-.14.41-.14.37-.26.66-.38.85s-.24.34-.37.43c-.13.09-.3.16-.5.19-.45,0-.78-.08-.99-.25Z"/>
  </g>
</svg>