<svg width="249" height="131" viewBox="0 0 249 131" fill="none" xmlns="http://www.w3.org/2000/svg">
<g clip-path="url(#clip0_5_53)">
<g filter="url(#filter0_d_5_53)">
<path d="M18.8097 30.3832C17.993 29.5651 17.5821 28.5751 17.5821 27.4236V14.965C17.5821 14.2042 17.7694 13.506 18.1491 12.8703C18.5288 12.2346 19.0334 11.7344 19.6732 11.3697C20.313 11.0049 20.9945 10.8278 21.7279 10.8278L24.7554 12.3805L24.7918 12.2555C25.4992 11.823 26.3107 11.4791 27.2262 11.2238C28.2614 10.9216 29.2081 10.7704 30.0768 10.7704C31.7362 10.7704 33.3332 11.2655 34.8729 12.2503L35.2682 12.5212L35.6115 12.7401L35.9341 12.5577L36.6363 12.1773C37.5258 11.7553 38.2905 11.4374 38.9251 11.2186C39.9082 10.8955 40.8862 10.7288 41.8433 10.7288C43.201 10.7288 44.4598 11.0362 45.6094 11.6562C46.759 12.2763 47.6745 13.1204 48.3404 14.1834C49.0062 15.2464 49.3391 16.424 49.3391 17.7162V27.4131C49.3391 28.1843 49.1518 28.8825 48.7825 29.5182C48.4132 30.1539 47.9138 30.6489 47.2948 31.0085C46.6758 31.368 45.9996 31.5504 45.2661 31.5504C44.1269 31.5504 43.1438 31.1544 42.3271 30.3571C41.5104 29.5599 41.0995 28.5803 41.0995 27.4131V19.7952C41.0995 19.5555 41.0526 19.3211 40.9642 19.0918C40.8758 18.8625 40.7405 18.6593 40.5689 18.4874C40.3972 18.3154 40.1995 18.1799 39.9811 18.0914C39.7626 18.0028 39.5389 17.9559 39.2944 17.9559C38.8003 17.9559 38.3737 18.133 38.0148 18.4822C37.6559 18.8313 37.4738 19.2585 37.4738 19.764V27.4548C37.4738 28.6481 37.0733 29.6433 36.267 30.4509C35.5075 31.2117 34.5608 31.5868 33.4164 31.5868C32.272 31.5868 31.2993 31.1856 30.4982 30.378C30.1393 29.982 29.8584 29.5182 29.6607 28.9867C29.463 28.4553 29.3642 27.9342 29.3642 27.4131V19.6858C29.3642 19.2064 29.1925 18.7792 28.8492 18.4144C28.5059 18.0497 28.0949 17.8569 27.6164 17.8465C27.1014 17.8465 26.654 18.0236 26.2743 18.3727C25.8946 18.7218 25.7073 19.1491 25.7073 19.6545V27.4184C25.7073 28.5959 25.312 29.586 24.5161 30.378C23.7202 31.17 22.7891 31.5504 21.6863 31.5504C20.5835 31.5504 19.6212 31.1596 18.8045 30.378L18.8097 30.3832Z" fill="#DCEAF7"/>
<path d="M52.4602 11.1872C53.048 10.911 53.6514 10.7703 54.2652 10.7703C54.8062 10.7703 55.3264 10.8902 55.8257 11.1299C56.3251 11.3696 56.7829 11.7395 57.1938 12.2397C57.6048 12.74 57.9377 13.3392 58.177 14.0374L60.2525 19.8316L62.1251 14.1416C62.2812 13.6258 62.5257 13.0682 62.8638 12.4794C63.1863 11.9271 63.6337 11.4998 64.1955 11.208C64.7572 10.9162 65.3607 10.7651 66.0005 10.7651C67.2281 10.7651 68.2737 11.2341 69.1372 12.172C69.8082 12.8806 70.1463 13.7612 70.1463 14.8086C70.1463 15.4338 70.0059 16.0487 69.7302 16.6479L60.6426 37.5789C59.7635 39.5798 58.4995 40.5751 56.8401 40.5751C56.4916 40.5751 56.065 40.4917 55.5605 40.3197C54.6813 40.0436 53.9999 39.5798 53.5161 38.9389C53.0324 38.298 52.7879 37.5581 52.7879 36.7244C52.7879 36.1721 52.9283 35.6041 53.204 35.0257L56.0338 29.1742L50.3899 16.3509C50.1974 15.9184 50.1038 15.4338 50.1038 14.9076C50.1038 14.1156 50.3118 13.3757 50.7332 12.6931C51.1545 12.0105 51.7319 11.505 52.4654 11.1664L52.4602 11.1872Z" fill="#DCEAF7"/>
</g>
<g filter="url(#filter1_d_5_53)">
<path d="M34.7273 44.4255C36.1422 44.1389 37.5727 43.993 39.0136 43.993C43.0242 43.993 46.2077 45.2384 48.5693 47.7343V48.1303L56.0027 43.993C56.5541 43.571 57.2719 43.3625 58.1666 43.3625C59.4515 43.3625 60.5542 43.8471 61.4698 44.8215C63.6701 47.1038 64.7729 49.8758 64.7729 53.1324V80.7018C64.7729 85.1933 64.2423 89.1847 63.1811 92.6758C62.12 96.1669 60.549 99.1005 58.4631 101.477C56.3772 103.853 53.7971 105.65 50.7176 106.875C47.6382 108.099 44.1581 108.704 40.2776 108.704C39.1488 108.704 38.3269 108.678 37.8015 108.625C32.9275 108.313 29.1405 107.391 26.4408 105.869C24.2664 104.686 22.6487 103.394 21.5875 101.987C20.5263 100.58 19.9958 99.1317 19.9958 97.6363C19.9958 96.5056 20.2715 95.4061 20.8228 94.3275C22.1337 91.5972 24.256 90.232 27.1899 90.232C28.1834 90.232 29.1926 90.3883 30.2173 90.7062H30.415L33.0471 91.7691C33.1251 91.8212 33.302 91.889 33.5777 91.9671C33.8534 92.0453 34.1083 92.1391 34.3423 92.2433C36.3346 92.9519 38.431 93.3063 40.6313 93.3063C42.6496 93.0457 44.1425 92.5195 45.1153 91.7327C46.088 90.9459 46.6498 89.8308 46.8059 88.3874C46.8579 88.1269 46.8839 87.7726 46.8839 87.3245C44.2882 88.7939 41.6145 89.5286 38.8627 89.5286C37.838 89.5286 36.4387 89.3827 34.6545 89.0961C32.2408 88.6219 29.9364 87.7413 27.736 86.4595C24.5109 84.4117 22.0141 81.7179 20.2454 78.3883C18.4768 75.0535 17.5925 71.3383 17.5925 67.2428C17.6185 64.2519 18.0711 61.4746 18.9502 58.911C19.8293 56.3474 21.0465 54.0651 22.6071 52.0591C24.1676 50.053 25.9934 48.3856 28.0898 47.0569C30.1861 45.7282 32.4021 44.858 34.7325 44.4359L34.7273 44.4255ZM35.3931 66.7582C35.4191 68.7278 36.0225 70.3379 37.2033 71.5832C38.3841 72.8286 39.8094 73.4538 41.4896 73.4538C42.067 73.4538 42.6288 73.3757 43.1802 73.2194C45.4846 72.5628 46.9931 70.8954 47.7006 68.2172C47.7526 67.6127 47.7786 66.7478 47.7786 65.6171C47.4665 63.8038 46.7486 62.3604 45.6355 61.2871C44.5223 60.2137 43.2166 59.6718 41.7237 59.6718C41.1983 59.6718 40.6365 59.7499 40.0331 59.9062C38.9824 60.2762 37.9992 60.9171 37.0837 61.8342C35.9549 63.1212 35.3931 64.7625 35.3931 66.7582Z" fill="#DCEAF7"/>
<path d="M78.2872 89.3255C75.8476 89.3255 73.7617 88.4501 72.0138 86.7046C70.2712 84.959 69.3973 82.8227 69.3973 80.3059V33.5199C69.3973 31.9463 69.7979 30.4717 70.599 29.1065C71.4 27.7413 72.482 26.6575 73.8449 25.8551C75.2078 25.0526 76.7163 24.6253 78.3652 24.5732C80.0402 24.5732 81.5644 24.9797 82.9272 25.7925C84.2901 26.6054 85.3721 27.7048 86.1732 29.0804C86.9742 30.456 87.3748 31.9619 87.3748 33.5876V46.661C88.3163 46.1608 89.3671 45.7023 90.5219 45.2802C93.3517 44.4153 95.989 43.9828 98.4234 43.9828C100.858 43.9828 102.991 44.3631 104.967 45.1239C106.944 45.8846 108.619 46.9268 109.982 48.2555C111.345 49.5842 112.411 51.2047 113.186 53.117C113.961 55.0293 114.346 57.0823 114.346 59.2603V80.4466C114.346 82.9946 113.462 85.1518 111.693 86.9234C109.925 88.695 107.755 89.5808 105.186 89.5808C102.694 89.4506 100.593 88.5022 98.876 86.7463C97.1594 84.9903 96.3011 82.8591 96.3011 80.3685V63.3558C96.3011 62.173 95.8797 61.1153 95.0422 60.1878C94.2048 59.2603 93.18 58.7757 91.9732 58.7496C90.7403 58.7496 89.6688 59.1821 88.7481 60.0471C87.8273 60.912 87.3696 61.9906 87.3696 63.2777V80.3685C87.3696 81.9942 86.9586 83.5053 86.1315 84.8965C85.3045 86.2877 84.1965 87.3715 82.8076 88.1479C81.4187 88.9243 79.9102 89.3099 78.2872 89.3099V89.3255Z" fill="#DCEAF7"/>
<path d="M121.54 39.5016C119.704 37.6622 118.788 35.38 118.788 32.6496C118.788 29.9193 119.73 27.7673 121.618 25.7977C122.534 24.9067 123.559 24.2241 124.687 23.7499C125.816 23.2757 126.992 23.0413 128.225 23.0413C130.82 23.0413 133.047 24.0104 134.909 25.954C136.719 27.8454 137.624 30.1016 137.624 32.7278C137.624 35.3539 136.719 37.6883 134.909 39.5016C133.099 41.3149 130.872 42.2215 128.225 42.2215C125.577 42.2215 123.35 41.3149 121.54 39.5016ZM128.225 89.3202C125.759 89.3202 123.657 88.4449 121.915 86.6993C120.172 84.9537 119.298 82.8174 119.298 80.3007V53.1273C119.298 51.4756 119.699 49.9593 120.5 48.5785C121.301 47.1977 122.388 46.1086 123.761 45.3114C125.135 44.5142 126.654 44.1078 128.303 44.1078C129.926 44.1338 131.424 44.5559 132.787 45.3687C134.149 46.1816 135.231 47.2706 136.032 48.6358C136.834 50.001 137.234 51.5225 137.234 53.2055V80.2225C137.234 82.7705 136.355 84.9225 134.602 86.6837C132.849 88.4449 130.721 89.3202 128.235 89.3202H128.225Z" fill="#DCEAF7"/>
<path d="M150.868 89.0858C148.402 89.0858 146.322 88.2313 144.615 86.5274C142.909 84.8183 142.061 82.6403 142.061 79.9881V33.6709C142.061 31.2272 142.925 29.1273 144.657 27.3713C146.389 25.6153 148.486 24.7087 150.946 24.6514C152.621 24.6514 154.15 25.063 155.529 25.8915C156.907 26.72 157.984 27.8194 158.775 29.2002C159.565 30.581 159.956 32.0973 159.956 33.7491V45.4469C160.086 45.3948 160.543 45.2385 161.334 44.9728C163.826 44.1599 166.13 43.7535 168.252 43.7535C169.433 43.7535 170.666 43.8994 171.946 44.186C174.88 44.7383 177.501 45.7804 179.811 47.3175C182.12 48.8547 184.045 50.8138 185.59 53.2055C187.135 55.5972 188.222 58.3119 188.852 61.3601C189.195 63.0119 189.361 64.6011 189.361 66.1278C189.361 69.8847 188.581 73.4019 187.021 76.6845C185.46 79.9672 183.358 82.6767 180.711 84.8183C178.063 86.9599 175.192 88.3042 172.102 88.8565C170.583 89.1171 169.272 89.2525 168.169 89.2525C163.899 89.2525 160.491 87.8613 157.948 85.0788V84.7662L150.868 89.0962V89.0858ZM159.321 66.9146C159.347 68.9885 159.95 70.6611 161.131 71.9377C162.312 73.2091 163.737 73.85 165.417 73.85C165.761 73.85 166.193 73.7979 166.713 73.6936C167.576 73.5113 168.372 73.1309 169.09 72.5525C169.808 71.9741 170.38 71.2134 170.801 70.2703C171.223 69.3272 171.441 68.2642 171.467 67.0814C171.467 64.7731 170.838 62.9702 169.579 61.6832C168.32 60.3962 166.619 59.7553 164.466 59.7553C163.155 59.9897 162.047 60.6046 161.142 61.5842C160.236 62.5638 159.654 63.8352 159.394 65.3827C159.342 65.7787 159.316 66.2894 159.316 66.9198L159.321 66.9146Z" fill="#DCEAF7"/>
<path d="M195.182 86.7619C193.398 84.9747 192.508 82.8227 192.508 80.3008V33.5928C192.508 32.0192 192.914 30.5446 193.726 29.1794C194.537 27.8143 195.64 26.7304 197.029 25.928C198.418 25.1256 199.952 24.7244 201.627 24.7244C203.224 24.7504 204.701 25.1777 206.049 26.0062C207.396 26.8347 208.462 27.9289 209.232 29.2941C210.002 30.6593 210.392 32.1443 210.392 33.7439V80.2174C210.392 82.7914 209.539 84.9695 207.838 86.7567C206.002 88.4658 203.88 89.3151 201.471 89.3151C199.063 89.3151 196.961 88.4606 195.182 86.7567V86.7619Z" fill="#DCEAF7"/>
<path d="M217.55 39.5016C215.714 37.6622 214.798 35.38 214.798 32.6496C214.798 29.9193 215.74 27.7673 217.628 25.7977C218.543 24.9067 219.568 24.2241 220.697 23.7499C221.826 23.2757 223.001 23.0413 224.234 23.0413C226.83 23.0413 229.056 24.0104 230.919 25.954C232.729 27.8454 233.634 30.1016 233.634 32.7278C233.634 35.3539 232.729 37.6883 230.919 39.5016C229.108 41.3149 226.882 42.2215 224.234 42.2215C221.587 42.2215 219.36 41.3149 217.55 39.5016ZM224.234 89.3202C221.769 89.3202 219.667 88.4449 217.924 86.6993C216.182 84.9537 215.308 82.8174 215.308 80.3007V53.1273C215.308 51.4756 215.708 49.9593 216.51 48.5785C217.311 47.1977 218.398 46.1086 219.771 45.3114C221.144 44.5142 222.663 44.1078 224.312 44.1078C225.935 44.1338 227.433 44.5559 228.796 45.3687C230.159 46.1816 231.241 47.2706 232.042 48.6358C232.843 50.001 233.244 51.5225 233.244 53.2055V80.2225C233.244 82.7705 232.365 84.9225 230.612 86.6837C228.859 88.4449 226.731 89.3202 224.245 89.3202H224.234Z" fill="#DCEAF7"/>
</g>
<g filter="url(#filter2_d_5_53)">
<path d="M142.503 115.05C141.869 114.415 141.546 113.643 141.546 112.742V96.0627C141.546 95.5 141.692 94.9737 141.983 94.4891C142.275 94.0046 142.665 93.6138 143.164 93.3272C143.663 93.0406 144.21 92.8999 144.808 92.8999C145.38 92.9103 145.905 93.0614 146.389 93.3584C146.873 93.6554 147.253 94.0462 147.528 94.5308C147.804 95.0154 147.945 95.5469 147.945 96.1201V112.716C147.945 113.633 147.643 114.415 147.034 115.05C146.379 115.66 145.619 115.962 144.761 115.962C143.903 115.962 143.154 115.66 142.514 115.05H142.503Z" fill="#DCEAF7"/>
<path d="M150.493 98.1731C149.838 97.5165 149.51 96.7037 149.51 95.7241C149.51 94.7445 149.848 93.9785 150.519 93.2751C150.847 92.9572 151.211 92.7123 151.617 92.5456C152.023 92.3789 152.439 92.2903 152.881 92.2903C153.807 92.2903 154.603 92.6394 155.269 93.3324C155.914 94.0098 156.236 94.8122 156.236 95.7501C156.236 96.688 155.914 97.5217 155.269 98.1679C154.624 98.814 153.828 99.137 152.881 99.137C151.934 99.137 151.138 98.814 150.493 98.1679V98.1731ZM152.881 115.962C152.002 115.962 151.248 115.649 150.629 115.029C150.01 114.409 149.698 113.643 149.698 112.742V103.04C149.698 102.451 149.838 101.909 150.124 101.414C150.41 100.919 150.8 100.533 151.289 100.247C151.778 99.9603 152.319 99.8196 152.912 99.8196C153.495 99.83 154.025 99.9811 154.514 100.268C155.003 100.554 155.388 100.945 155.674 101.435C155.961 101.925 156.101 102.467 156.101 103.066V112.711C156.101 113.623 155.789 114.388 155.159 115.019C154.53 115.649 153.776 115.962 152.886 115.962H152.881Z" fill="#DCEAF7"/>
<path d="M160.965 115.879C160.086 115.879 159.342 115.576 158.733 114.967C158.124 114.357 157.823 113.581 157.823 112.632V96.0939C157.823 95.2238 158.13 94.4734 158.749 93.843C159.368 93.2125 160.117 92.8894 160.996 92.8738C161.594 92.8738 162.14 93.0197 162.629 93.3167C163.118 93.6137 163.508 94.0045 163.789 94.4995C164.07 94.9945 164.211 95.5312 164.211 96.1252V100.304C164.257 100.283 164.419 100.231 164.7 100.137C165.589 99.8456 166.411 99.6997 167.17 99.6997C167.592 99.6997 168.034 99.7518 168.492 99.856C169.542 100.054 170.474 100.424 171.301 100.976C172.128 101.529 172.814 102.227 173.366 103.076C173.917 103.925 174.307 104.9 174.531 105.989C174.651 106.578 174.713 107.146 174.713 107.693C174.713 109.032 174.432 110.288 173.876 111.46C173.319 112.632 172.57 113.602 171.623 114.362C170.676 115.123 169.652 115.608 168.549 115.806C168.008 115.899 167.54 115.946 167.144 115.946C165.62 115.946 164.403 115.451 163.493 114.456V114.342L160.965 115.889V115.879ZM163.982 107.964C163.992 108.704 164.205 109.303 164.627 109.756C165.048 110.209 165.558 110.439 166.156 110.439C166.276 110.439 166.432 110.418 166.619 110.381C166.926 110.314 167.212 110.178 167.467 109.975C167.722 109.772 167.93 109.496 168.076 109.157C168.221 108.818 168.304 108.438 168.315 108.016C168.315 107.193 168.091 106.546 167.639 106.088C167.186 105.629 166.583 105.4 165.813 105.4C165.345 105.483 164.949 105.702 164.627 106.051C164.304 106.401 164.096 106.854 164.003 107.406C163.982 107.547 163.976 107.729 163.976 107.953L163.982 107.964Z" fill="#DCEAF7"/>
<path d="M179.317 115.905C178.438 115.905 177.683 115.603 177.054 114.998C176.424 114.394 176.112 113.649 176.112 112.768V103.035C176.112 102.144 176.424 101.383 177.054 100.758C177.683 100.132 178.432 99.8145 179.317 99.8145L182.276 101.826V101.685L182.443 101.477L182.791 101.112C183.551 100.315 184.362 99.903 185.236 99.8718C185.543 99.8718 185.814 99.9082 186.037 99.9864C186.599 100.127 187.073 100.398 187.463 100.804C187.853 101.211 188.097 101.669 188.201 102.196C188.238 102.514 188.259 102.748 188.259 102.899C188.259 103.582 188.024 104.171 187.556 104.666C187.088 105.161 186.344 105.577 185.325 105.926C185.221 105.963 185.132 105.994 185.059 106.026C184.987 106.057 184.883 106.093 184.753 106.151C184.274 106.338 183.884 106.531 183.582 106.729C183.28 106.927 183.046 107.146 182.895 107.391C182.745 107.636 182.635 107.933 182.573 108.282C182.511 108.631 182.479 109.115 182.479 109.725V112.549C182.479 113.159 182.339 113.716 182.058 114.232C181.777 114.748 181.392 115.149 180.908 115.446C180.425 115.743 179.894 115.9 179.322 115.91L179.317 115.905Z" fill="#DCEAF7"/>
<path d="M194.053 99.877C194.662 99.7572 195.135 99.6947 195.473 99.6947C196.894 99.6947 198.08 100.158 199.026 101.086V101.169L201.679 99.7468C201.903 99.5956 202.168 99.5227 202.48 99.5227C202.938 99.5227 203.323 99.6947 203.63 100.044C204.415 100.831 204.811 101.8 204.811 102.956V112.716C204.811 113.664 204.509 114.435 203.911 115.035C203.313 115.634 202.558 115.936 201.648 115.936L199.021 114.446V114.587C198.152 115.504 196.977 115.962 195.499 115.962C195.01 115.962 194.464 115.905 193.856 115.795C192.987 115.629 192.139 115.259 191.312 114.691C190.485 114.123 189.772 113.383 189.164 112.461C188.753 111.768 188.441 111.033 188.238 110.251C188.035 109.47 187.931 108.584 187.931 107.578C187.998 106.286 188.305 105.088 188.862 103.993C189.419 102.899 190.152 101.987 191.057 101.273C191.962 100.56 192.961 100.091 194.048 99.8718L194.053 99.877ZM194.293 107.99C194.293 108.646 194.485 109.225 194.87 109.72C195.291 110.236 195.817 110.491 196.441 110.491C196.816 110.491 197.169 110.392 197.507 110.189C197.845 109.986 198.111 109.694 198.308 109.308C198.475 109.027 198.574 108.751 198.605 108.48C198.626 108.266 198.631 107.964 198.631 107.578C198.491 106.614 198.048 105.963 197.31 105.624C196.992 105.473 196.691 105.4 196.41 105.4C195.895 105.4 195.453 105.588 195.078 105.963C194.704 106.338 194.459 106.838 194.35 107.469C194.339 107.563 194.334 107.646 194.329 107.714C194.324 107.782 194.313 107.875 194.293 107.99Z" fill="#DCEAF7"/>
<path d="M209.68 115.905C208.8 115.905 208.046 115.603 207.417 114.998C206.787 114.394 206.475 113.649 206.475 112.768V103.035C206.475 102.144 206.787 101.383 207.417 100.758C208.046 100.132 208.795 99.8145 209.68 99.8145L212.639 101.826V101.685L212.806 101.477L213.154 101.112C213.914 100.315 214.725 99.903 215.599 99.8718C215.906 99.8718 216.177 99.9082 216.4 99.9864C216.962 100.127 217.435 100.398 217.826 100.804C218.216 101.211 218.46 101.669 218.564 102.196C218.601 102.514 218.621 102.748 218.621 102.899C218.621 103.582 218.387 104.171 217.919 104.666C217.451 105.161 216.707 105.577 215.688 105.926C215.584 105.963 215.495 105.994 215.422 106.026C215.35 106.057 215.246 106.093 215.115 106.151C214.637 106.338 214.247 106.531 213.945 106.729C213.643 106.927 213.409 107.146 213.258 107.391C213.108 107.636 212.998 107.933 212.936 108.282C212.874 108.631 212.842 109.115 212.842 109.725V112.549C212.842 113.159 212.702 113.716 212.421 114.232C212.14 114.748 211.755 115.149 211.271 115.446C210.788 115.743 210.257 115.9 209.685 115.91L209.68 115.905Z" fill="#DCEAF7"/>
<path d="M219.86 100.101C220.317 99.8873 220.785 99.7778 221.264 99.7778C221.685 99.7778 222.091 99.8716 222.476 100.059C222.861 100.247 223.22 100.533 223.542 100.924C223.865 101.315 224.12 101.779 224.307 102.326L225.92 106.838L227.381 102.409C227.501 102.008 227.693 101.575 227.959 101.117C228.214 100.684 228.557 100.356 228.999 100.127C229.441 99.8977 229.909 99.783 230.404 99.783C231.361 99.783 232.172 100.148 232.848 100.882C233.374 101.435 233.634 102.123 233.634 102.935C233.634 103.425 233.525 103.899 233.311 104.368L226.237 120.667C225.556 122.225 224.567 123.002 223.277 123.002C223.007 123.002 222.674 122.934 222.278 122.804C221.597 122.59 221.066 122.23 220.687 121.73C220.307 121.23 220.12 120.657 220.12 120.005C220.12 119.573 220.229 119.135 220.442 118.682L222.648 114.128L218.252 104.144C218.101 103.806 218.029 103.43 218.029 103.019C218.029 102.399 218.19 101.826 218.517 101.294C218.845 100.763 219.293 100.367 219.865 100.106L219.86 100.101Z" fill="#DCEAF7"/>
</g>
</g>
<defs>
<filter id="filter0_d_5_53" x="14.5821" y="7.72876" width="72.5642" height="49.8462" filterUnits="userSpaceOnUse" color-interpolation-filters="sRGB">
<feFlood flood-opacity="0" result="BackgroundImageFix"/>
<feColorMatrix in="SourceAlpha" type="matrix" values="0 0 0 0 0 0 0 0 0 0 0 0 0 0 0 0 0 0 127 0" result="hardAlpha"/>
<feOffset dx="7" dy="7"/>
<feGaussianBlur stdDeviation="5"/>
<feColorMatrix type="matrix" values="0 0 0 0 0.317647 0 0 0 0 0.396078 0 0 0 0 0.576471 0 0 0 0.75 0"/>
<feBlend mode="normal" in2="BackgroundImageFix" result="effect1_dropShadow_5_53"/>
<feBlend mode="normal" in="SourceGraphic" in2="effect1_dropShadow_5_53" result="shape"/>
</filter>
<filter id="filter1_d_5_53" x="14.5925" y="20.0413" width="236.041" height="105.662" filterUnits="userSpaceOnUse" color-interpolation-filters="sRGB">
<feFlood flood-opacity="0" result="BackgroundImageFix"/>
<feColorMatrix in="SourceAlpha" type="matrix" values="0 0 0 0 0 0 0 0 0 0 0 0 0 0 0 0 0 0 127 0" result="hardAlpha"/>
<feOffset dx="7" dy="7"/>
<feGaussianBlur stdDeviation="5"/>
<feColorMatrix type="matrix" values="0 0 0 0 0.317647 0 0 0 0 0.396078 0 0 0 0 0.576471 0 0 0 0.75 0"/>
<feBlend mode="normal" in2="BackgroundImageFix" result="effect1_dropShadow_5_53"/>
<feBlend mode="normal" in="SourceGraphic" in2="effect1_dropShadow_5_53" result="shape"/>
</filter>
<filter id="filter2_d_5_53" x="138.546" y="89.2903" width="112.088" height="50.7112" filterUnits="userSpaceOnUse" color-interpolation-filters="sRGB">
<feFlood flood-opacity="0" result="BackgroundImageFix"/>
<feColorMatrix in="SourceAlpha" type="matrix" values="0 0 0 0 0 0 0 0 0 0 0 0 0 0 0 0 0 0 127 0" result="hardAlpha"/>
<feOffset dx="7" dy="7"/>
<feGaussianBlur stdDeviation="5"/>
<feColorMatrix type="matrix" values="0 0 0 0 0.317647 0 0 0 0 0.396078 0 0 0 0 0.576471 0 0 0 0.75 0"/>
<feBlend mode="normal" in2="BackgroundImageFix" result="effect1_dropShadow_5_53"/>
<feBlend mode="normal" in="SourceGraphic" in2="effect1_dropShadow_5_53" result="shape"/>
</filter>
<clipPath id="clip0_5_53">
<rect width="249" height="131" fill="white"/>
</clipPath>
</defs>
</svg>
